%TF.GenerationSoftware,KiCad,Pcbnew,9.0.0*%
%TF.CreationDate,2026-03-11T15:20:04-04:00*%
%TF.ProjectId,SSA_LED_Board_1,5353415f-4c45-4445-9f42-6f6172645f31,rev?*%
%TF.SameCoordinates,Original*%
%TF.FileFunction,Paste,Top*%
%TF.FilePolarity,Positive*%
%FSLAX46Y46*%
G04 Gerber Fmt 4.6, Leading zero omitted, Abs format (unit mm)*
G04 Created by KiCad (PCBNEW 9.0.0) date 2026-03-11 15:20:04*
%MOMM*%
%LPD*%
G01*
G04 APERTURE LIST*
G04 Aperture macros list*
%AMRoundRect*
0 Rectangle with rounded corners*
0 $1 Rounding radius*
0 $2 $3 $4 $5 $6 $7 $8 $9 X,Y pos of 4 corners*
0 Add a 4 corners polygon primitive as box body*
4,1,4,$2,$3,$4,$5,$6,$7,$8,$9,$2,$3,0*
0 Add four circle primitives for the rounded corners*
1,1,$1+$1,$2,$3*
1,1,$1+$1,$4,$5*
1,1,$1+$1,$6,$7*
1,1,$1+$1,$8,$9*
0 Add four rect primitives between the rounded corners*
20,1,$1+$1,$2,$3,$4,$5,0*
20,1,$1+$1,$4,$5,$6,$7,0*
20,1,$1+$1,$6,$7,$8,$9,0*
20,1,$1+$1,$8,$9,$2,$3,0*%
G04 Aperture macros list end*
%ADD10RoundRect,0.218750X0.256250X-0.218750X0.256250X0.218750X-0.256250X0.218750X-0.256250X-0.218750X0*%
%ADD11RoundRect,0.218750X-0.256250X0.218750X-0.256250X-0.218750X0.256250X-0.218750X0.256250X0.218750X0*%
%ADD12RoundRect,0.218750X-0.218750X-0.256250X0.218750X-0.256250X0.218750X0.256250X-0.218750X0.256250X0*%
%ADD13RoundRect,0.218750X0.218750X0.256250X-0.218750X0.256250X-0.218750X-0.256250X0.218750X-0.256250X0*%
G04 APERTURE END LIST*
D10*
%TO.C,D24*%
X89000000Y-41725000D03*
X89000000Y-43300000D03*
%TD*%
%TO.C,D27*%
X75800000Y-36550000D03*
X75800000Y-34975000D03*
%TD*%
%TO.C,D23*%
X89000000Y-36550000D03*
X89000000Y-34975000D03*
%TD*%
D11*
%TO.C,D17*%
X55500000Y-38700000D03*
X55500000Y-40275000D03*
%TD*%
D12*
%TO.C,D16*%
X57425000Y-44687500D03*
X59000000Y-44687500D03*
%TD*%
D13*
%TO.C,D6*%
X44525000Y-44600000D03*
X46100000Y-44600000D03*
%TD*%
%TO.C,D5*%
X39225000Y-44600000D03*
X40800000Y-44600000D03*
%TD*%
D12*
%TO.C,D1*%
X46400000Y-31325000D03*
X44825000Y-31325000D03*
%TD*%
D10*
%TO.C,D3*%
X36500000Y-34700000D03*
X36500000Y-36275000D03*
%TD*%
D12*
%TO.C,D2*%
X41300000Y-31325000D03*
X39725000Y-31325000D03*
%TD*%
%TO.C,D10*%
X39200000Y-58800000D03*
X37625000Y-58800000D03*
%TD*%
D11*
%TO.C,D13*%
X66800000Y-54100000D03*
X66800000Y-52525000D03*
%TD*%
D10*
%TO.C,D4*%
X36500000Y-39300000D03*
X36500000Y-40875000D03*
%TD*%
D12*
%TO.C,D15*%
X63600000Y-44787500D03*
X62025000Y-44787500D03*
%TD*%
%TO.C,D12*%
X58500000Y-58487500D03*
X56925000Y-58487500D03*
%TD*%
D10*
%TO.C,D8*%
X48800000Y-52100000D03*
X48800000Y-53675000D03*
%TD*%
D12*
%TO.C,D9*%
X45000000Y-58700000D03*
X43425000Y-58700000D03*
%TD*%
D10*
%TO.C,D7*%
X48800000Y-47100000D03*
X48800000Y-48675000D03*
%TD*%
D12*
%TO.C,D11*%
X64387500Y-58387500D03*
X62812500Y-58387500D03*
%TD*%
D11*
%TO.C,D14*%
X66700000Y-48787500D03*
X66700000Y-47212500D03*
%TD*%
D13*
%TO.C,D20*%
X64600000Y-30887500D03*
X66175000Y-30887500D03*
%TD*%
D12*
%TO.C,D26*%
X80287500Y-46762500D03*
X78712500Y-46762500D03*
%TD*%
D13*
%TO.C,D21*%
X78712500Y-31012500D03*
X80287500Y-31012500D03*
%TD*%
%TO.C,D19*%
X59700000Y-30987500D03*
X61275000Y-30987500D03*
%TD*%
D11*
%TO.C,D18*%
X55500000Y-35287500D03*
X55500000Y-33712500D03*
%TD*%
D13*
%TO.C,D22*%
X84712500Y-31012500D03*
X86287500Y-31012500D03*
%TD*%
D12*
%TO.C,D25*%
X86287500Y-46762500D03*
X84712500Y-46762500D03*
%TD*%
D11*
%TO.C,D31*%
X89000000Y-58300000D03*
X89000000Y-56725000D03*
%TD*%
D10*
%TO.C,D29*%
X75800000Y-50225000D03*
X75800000Y-51800000D03*
%TD*%
%TO.C,D30*%
X75800000Y-58300000D03*
X75800000Y-56725000D03*
%TD*%
%TO.C,D28*%
X75800000Y-41725000D03*
X75800000Y-43300000D03*
%TD*%
D11*
%TO.C,D32*%
X89000000Y-51800000D03*
X89000000Y-50225000D03*
%TD*%
M02*
