%TF.GenerationSoftware,KiCad,Pcbnew,9.0.0*%
%TF.CreationDate,2026-03-11T15:20:04-04:00*%
%TF.ProjectId,SSA_LED_Board_1,5353415f-4c45-4445-9f42-6f6172645f31,rev?*%
%TF.SameCoordinates,Original*%
%TF.FileFunction,Legend,Bot*%
%TF.FilePolarity,Positive*%
%FSLAX46Y46*%
G04 Gerber Fmt 4.6, Leading zero omitted, Abs format (unit mm)*
G04 Created by KiCad (PCBNEW 9.0.0) date 2026-03-11 15:20:04*
%MOMM*%
%LPD*%
G01*
G04 APERTURE LIST*
%ADD10C,0.500000*%
%ADD11C,0.300000*%
%ADD12C,0.100000*%
%ADD13C,0.150000*%
%ADD14C,0.000000*%
%ADD15C,0.200000*%
%ADD16C,0.250000*%
%ADD17C,0.120000*%
G04 APERTURE END LIST*
D10*
X66618672Y-55524000D02*
X65904386Y-55762095D01*
X65904386Y-55762095D02*
X64713910Y-55762095D01*
X64713910Y-55762095D02*
X64237719Y-55524000D01*
X64237719Y-55524000D02*
X63999624Y-55285904D01*
X63999624Y-55285904D02*
X63761529Y-54809714D01*
X63761529Y-54809714D02*
X63761529Y-54333523D01*
X63761529Y-54333523D02*
X63999624Y-53857333D01*
X63999624Y-53857333D02*
X64237719Y-53619238D01*
X64237719Y-53619238D02*
X64713910Y-53381142D01*
X64713910Y-53381142D02*
X65666291Y-53143047D01*
X65666291Y-53143047D02*
X66142481Y-52904952D01*
X66142481Y-52904952D02*
X66380576Y-52666857D01*
X66380576Y-52666857D02*
X66618672Y-52190666D01*
X66618672Y-52190666D02*
X66618672Y-51714476D01*
X66618672Y-51714476D02*
X66380576Y-51238285D01*
X66380576Y-51238285D02*
X66142481Y-51000190D01*
X66142481Y-51000190D02*
X65666291Y-50762095D01*
X65666291Y-50762095D02*
X64475814Y-50762095D01*
X64475814Y-50762095D02*
X63761529Y-51000190D01*
X61856767Y-55524000D02*
X61142481Y-55762095D01*
X61142481Y-55762095D02*
X59952005Y-55762095D01*
X59952005Y-55762095D02*
X59475814Y-55524000D01*
X59475814Y-55524000D02*
X59237719Y-55285904D01*
X59237719Y-55285904D02*
X58999624Y-54809714D01*
X58999624Y-54809714D02*
X58999624Y-54333523D01*
X58999624Y-54333523D02*
X59237719Y-53857333D01*
X59237719Y-53857333D02*
X59475814Y-53619238D01*
X59475814Y-53619238D02*
X59952005Y-53381142D01*
X59952005Y-53381142D02*
X60904386Y-53143047D01*
X60904386Y-53143047D02*
X61380576Y-52904952D01*
X61380576Y-52904952D02*
X61618671Y-52666857D01*
X61618671Y-52666857D02*
X61856767Y-52190666D01*
X61856767Y-52190666D02*
X61856767Y-51714476D01*
X61856767Y-51714476D02*
X61618671Y-51238285D01*
X61618671Y-51238285D02*
X61380576Y-51000190D01*
X61380576Y-51000190D02*
X60904386Y-50762095D01*
X60904386Y-50762095D02*
X59713909Y-50762095D01*
X59713909Y-50762095D02*
X58999624Y-51000190D01*
X57094862Y-54333523D02*
X54713909Y-54333523D01*
X57571052Y-55762095D02*
X55904385Y-50762095D01*
X55904385Y-50762095D02*
X54237719Y-55762095D01*
X46618671Y-55524000D02*
X47094862Y-55762095D01*
X47094862Y-55762095D02*
X48047243Y-55762095D01*
X48047243Y-55762095D02*
X48523433Y-55524000D01*
X48523433Y-55524000D02*
X48761528Y-55285904D01*
X48761528Y-55285904D02*
X48999624Y-54809714D01*
X48999624Y-54809714D02*
X48999624Y-53381142D01*
X48999624Y-53381142D02*
X48761528Y-52904952D01*
X48761528Y-52904952D02*
X48523433Y-52666857D01*
X48523433Y-52666857D02*
X48047243Y-52428761D01*
X48047243Y-52428761D02*
X47094862Y-52428761D01*
X47094862Y-52428761D02*
X46618671Y-52666857D01*
X43761529Y-55762095D02*
X44237719Y-55524000D01*
X44237719Y-55524000D02*
X44475814Y-55285904D01*
X44475814Y-55285904D02*
X44713910Y-54809714D01*
X44713910Y-54809714D02*
X44713910Y-53381142D01*
X44713910Y-53381142D02*
X44475814Y-52904952D01*
X44475814Y-52904952D02*
X44237719Y-52666857D01*
X44237719Y-52666857D02*
X43761529Y-52428761D01*
X43761529Y-52428761D02*
X43047243Y-52428761D01*
X43047243Y-52428761D02*
X42571052Y-52666857D01*
X42571052Y-52666857D02*
X42332957Y-52904952D01*
X42332957Y-52904952D02*
X42094862Y-53381142D01*
X42094862Y-53381142D02*
X42094862Y-54809714D01*
X42094862Y-54809714D02*
X42332957Y-55285904D01*
X42332957Y-55285904D02*
X42571052Y-55524000D01*
X42571052Y-55524000D02*
X43047243Y-55762095D01*
X43047243Y-55762095D02*
X43761529Y-55762095D01*
X39952004Y-55285904D02*
X39713909Y-55524000D01*
X39713909Y-55524000D02*
X39952004Y-55762095D01*
X39952004Y-55762095D02*
X40190100Y-55524000D01*
X40190100Y-55524000D02*
X39952004Y-55285904D01*
X39952004Y-55285904D02*
X39952004Y-55762095D01*
D11*
X68500000Y-57200000D02*
X37300000Y-57200000D01*
X68121679Y-59924512D02*
X67835965Y-60019750D01*
X67835965Y-60019750D02*
X67359774Y-60019750D01*
X67359774Y-60019750D02*
X67169298Y-59924512D01*
X67169298Y-59924512D02*
X67074060Y-59829273D01*
X67074060Y-59829273D02*
X66978822Y-59638797D01*
X66978822Y-59638797D02*
X66978822Y-59448321D01*
X66978822Y-59448321D02*
X67074060Y-59257845D01*
X67074060Y-59257845D02*
X67169298Y-59162607D01*
X67169298Y-59162607D02*
X67359774Y-59067369D01*
X67359774Y-59067369D02*
X67740727Y-58972131D01*
X67740727Y-58972131D02*
X67931203Y-58876892D01*
X67931203Y-58876892D02*
X68026441Y-58781654D01*
X68026441Y-58781654D02*
X68121679Y-58591178D01*
X68121679Y-58591178D02*
X68121679Y-58400702D01*
X68121679Y-58400702D02*
X68026441Y-58210226D01*
X68026441Y-58210226D02*
X67931203Y-58114988D01*
X67931203Y-58114988D02*
X67740727Y-58019750D01*
X67740727Y-58019750D02*
X67264536Y-58019750D01*
X67264536Y-58019750D02*
X66978822Y-58114988D01*
X65359774Y-59924512D02*
X65550250Y-60019750D01*
X65550250Y-60019750D02*
X65931203Y-60019750D01*
X65931203Y-60019750D02*
X66121679Y-59924512D01*
X66121679Y-59924512D02*
X66216917Y-59734035D01*
X66216917Y-59734035D02*
X66216917Y-58972131D01*
X66216917Y-58972131D02*
X66121679Y-58781654D01*
X66121679Y-58781654D02*
X65931203Y-58686416D01*
X65931203Y-58686416D02*
X65550250Y-58686416D01*
X65550250Y-58686416D02*
X65359774Y-58781654D01*
X65359774Y-58781654D02*
X65264536Y-58972131D01*
X65264536Y-58972131D02*
X65264536Y-59162607D01*
X65264536Y-59162607D02*
X66216917Y-59353083D01*
X64407393Y-60019750D02*
X64407393Y-58686416D01*
X64407393Y-58876892D02*
X64312155Y-58781654D01*
X64312155Y-58781654D02*
X64121679Y-58686416D01*
X64121679Y-58686416D02*
X63835964Y-58686416D01*
X63835964Y-58686416D02*
X63645488Y-58781654D01*
X63645488Y-58781654D02*
X63550250Y-58972131D01*
X63550250Y-58972131D02*
X63550250Y-60019750D01*
X63550250Y-58972131D02*
X63455012Y-58781654D01*
X63455012Y-58781654D02*
X63264536Y-58686416D01*
X63264536Y-58686416D02*
X62978822Y-58686416D01*
X62978822Y-58686416D02*
X62788345Y-58781654D01*
X62788345Y-58781654D02*
X62693107Y-58972131D01*
X62693107Y-58972131D02*
X62693107Y-60019750D01*
X61740726Y-60019750D02*
X61740726Y-58686416D01*
X61740726Y-58019750D02*
X61835964Y-58114988D01*
X61835964Y-58114988D02*
X61740726Y-58210226D01*
X61740726Y-58210226D02*
X61645488Y-58114988D01*
X61645488Y-58114988D02*
X61740726Y-58019750D01*
X61740726Y-58019750D02*
X61740726Y-58210226D01*
X59931202Y-59924512D02*
X60121678Y-60019750D01*
X60121678Y-60019750D02*
X60502631Y-60019750D01*
X60502631Y-60019750D02*
X60693107Y-59924512D01*
X60693107Y-59924512D02*
X60788345Y-59829273D01*
X60788345Y-59829273D02*
X60883583Y-59638797D01*
X60883583Y-59638797D02*
X60883583Y-59067369D01*
X60883583Y-59067369D02*
X60788345Y-58876892D01*
X60788345Y-58876892D02*
X60693107Y-58781654D01*
X60693107Y-58781654D02*
X60502631Y-58686416D01*
X60502631Y-58686416D02*
X60121678Y-58686416D01*
X60121678Y-58686416D02*
X59931202Y-58781654D01*
X58788345Y-60019750D02*
X58978821Y-59924512D01*
X58978821Y-59924512D02*
X59074059Y-59829273D01*
X59074059Y-59829273D02*
X59169297Y-59638797D01*
X59169297Y-59638797D02*
X59169297Y-59067369D01*
X59169297Y-59067369D02*
X59074059Y-58876892D01*
X59074059Y-58876892D02*
X58978821Y-58781654D01*
X58978821Y-58781654D02*
X58788345Y-58686416D01*
X58788345Y-58686416D02*
X58502630Y-58686416D01*
X58502630Y-58686416D02*
X58312154Y-58781654D01*
X58312154Y-58781654D02*
X58216916Y-58876892D01*
X58216916Y-58876892D02*
X58121678Y-59067369D01*
X58121678Y-59067369D02*
X58121678Y-59638797D01*
X58121678Y-59638797D02*
X58216916Y-59829273D01*
X58216916Y-59829273D02*
X58312154Y-59924512D01*
X58312154Y-59924512D02*
X58502630Y-60019750D01*
X58502630Y-60019750D02*
X58788345Y-60019750D01*
X57264535Y-58686416D02*
X57264535Y-60019750D01*
X57264535Y-58876892D02*
X57169297Y-58781654D01*
X57169297Y-58781654D02*
X56978821Y-58686416D01*
X56978821Y-58686416D02*
X56693106Y-58686416D01*
X56693106Y-58686416D02*
X56502630Y-58781654D01*
X56502630Y-58781654D02*
X56407392Y-58972131D01*
X56407392Y-58972131D02*
X56407392Y-60019750D01*
X54597868Y-60019750D02*
X54597868Y-58019750D01*
X54597868Y-59924512D02*
X54788344Y-60019750D01*
X54788344Y-60019750D02*
X55169297Y-60019750D01*
X55169297Y-60019750D02*
X55359773Y-59924512D01*
X55359773Y-59924512D02*
X55455011Y-59829273D01*
X55455011Y-59829273D02*
X55550249Y-59638797D01*
X55550249Y-59638797D02*
X55550249Y-59067369D01*
X55550249Y-59067369D02*
X55455011Y-58876892D01*
X55455011Y-58876892D02*
X55359773Y-58781654D01*
X55359773Y-58781654D02*
X55169297Y-58686416D01*
X55169297Y-58686416D02*
X54788344Y-58686416D01*
X54788344Y-58686416D02*
X54597868Y-58781654D01*
X52788344Y-58686416D02*
X52788344Y-60019750D01*
X53645487Y-58686416D02*
X53645487Y-59734035D01*
X53645487Y-59734035D02*
X53550249Y-59924512D01*
X53550249Y-59924512D02*
X53359773Y-60019750D01*
X53359773Y-60019750D02*
X53074058Y-60019750D01*
X53074058Y-60019750D02*
X52883582Y-59924512D01*
X52883582Y-59924512D02*
X52788344Y-59829273D01*
X50978820Y-59924512D02*
X51169296Y-60019750D01*
X51169296Y-60019750D02*
X51550249Y-60019750D01*
X51550249Y-60019750D02*
X51740725Y-59924512D01*
X51740725Y-59924512D02*
X51835963Y-59829273D01*
X51835963Y-59829273D02*
X51931201Y-59638797D01*
X51931201Y-59638797D02*
X51931201Y-59067369D01*
X51931201Y-59067369D02*
X51835963Y-58876892D01*
X51835963Y-58876892D02*
X51740725Y-58781654D01*
X51740725Y-58781654D02*
X51550249Y-58686416D01*
X51550249Y-58686416D02*
X51169296Y-58686416D01*
X51169296Y-58686416D02*
X50978820Y-58781654D01*
X50407391Y-58686416D02*
X49645487Y-58686416D01*
X50121677Y-58019750D02*
X50121677Y-59734035D01*
X50121677Y-59734035D02*
X50026439Y-59924512D01*
X50026439Y-59924512D02*
X49835963Y-60019750D01*
X49835963Y-60019750D02*
X49645487Y-60019750D01*
X48693106Y-60019750D02*
X48883582Y-59924512D01*
X48883582Y-59924512D02*
X48978820Y-59829273D01*
X48978820Y-59829273D02*
X49074058Y-59638797D01*
X49074058Y-59638797D02*
X49074058Y-59067369D01*
X49074058Y-59067369D02*
X48978820Y-58876892D01*
X48978820Y-58876892D02*
X48883582Y-58781654D01*
X48883582Y-58781654D02*
X48693106Y-58686416D01*
X48693106Y-58686416D02*
X48407391Y-58686416D01*
X48407391Y-58686416D02*
X48216915Y-58781654D01*
X48216915Y-58781654D02*
X48121677Y-58876892D01*
X48121677Y-58876892D02*
X48026439Y-59067369D01*
X48026439Y-59067369D02*
X48026439Y-59638797D01*
X48026439Y-59638797D02*
X48121677Y-59829273D01*
X48121677Y-59829273D02*
X48216915Y-59924512D01*
X48216915Y-59924512D02*
X48407391Y-60019750D01*
X48407391Y-60019750D02*
X48693106Y-60019750D01*
X47169296Y-60019750D02*
X47169296Y-58686416D01*
X47169296Y-59067369D02*
X47074058Y-58876892D01*
X47074058Y-58876892D02*
X46978820Y-58781654D01*
X46978820Y-58781654D02*
X46788344Y-58686416D01*
X46788344Y-58686416D02*
X46597867Y-58686416D01*
X44502629Y-59924512D02*
X44216915Y-60019750D01*
X44216915Y-60019750D02*
X43740724Y-60019750D01*
X43740724Y-60019750D02*
X43550248Y-59924512D01*
X43550248Y-59924512D02*
X43455010Y-59829273D01*
X43455010Y-59829273D02*
X43359772Y-59638797D01*
X43359772Y-59638797D02*
X43359772Y-59448321D01*
X43359772Y-59448321D02*
X43455010Y-59257845D01*
X43455010Y-59257845D02*
X43550248Y-59162607D01*
X43550248Y-59162607D02*
X43740724Y-59067369D01*
X43740724Y-59067369D02*
X44121677Y-58972131D01*
X44121677Y-58972131D02*
X44312153Y-58876892D01*
X44312153Y-58876892D02*
X44407391Y-58781654D01*
X44407391Y-58781654D02*
X44502629Y-58591178D01*
X44502629Y-58591178D02*
X44502629Y-58400702D01*
X44502629Y-58400702D02*
X44407391Y-58210226D01*
X44407391Y-58210226D02*
X44312153Y-58114988D01*
X44312153Y-58114988D02*
X44121677Y-58019750D01*
X44121677Y-58019750D02*
X43645486Y-58019750D01*
X43645486Y-58019750D02*
X43359772Y-58114988D01*
X42788343Y-58686416D02*
X42026439Y-58686416D01*
X42502629Y-58019750D02*
X42502629Y-59734035D01*
X42502629Y-59734035D02*
X42407391Y-59924512D01*
X42407391Y-59924512D02*
X42216915Y-60019750D01*
X42216915Y-60019750D02*
X42026439Y-60019750D01*
X40502629Y-58686416D02*
X40502629Y-60019750D01*
X41359772Y-58686416D02*
X41359772Y-59734035D01*
X41359772Y-59734035D02*
X41264534Y-59924512D01*
X41264534Y-59924512D02*
X41074058Y-60019750D01*
X41074058Y-60019750D02*
X40788343Y-60019750D01*
X40788343Y-60019750D02*
X40597867Y-59924512D01*
X40597867Y-59924512D02*
X40502629Y-59829273D01*
X38693105Y-60019750D02*
X38693105Y-58019750D01*
X38693105Y-59924512D02*
X38883581Y-60019750D01*
X38883581Y-60019750D02*
X39264534Y-60019750D01*
X39264534Y-60019750D02*
X39455010Y-59924512D01*
X39455010Y-59924512D02*
X39550248Y-59829273D01*
X39550248Y-59829273D02*
X39645486Y-59638797D01*
X39645486Y-59638797D02*
X39645486Y-59067369D01*
X39645486Y-59067369D02*
X39550248Y-58876892D01*
X39550248Y-58876892D02*
X39455010Y-58781654D01*
X39455010Y-58781654D02*
X39264534Y-58686416D01*
X39264534Y-58686416D02*
X38883581Y-58686416D01*
X38883581Y-58686416D02*
X38693105Y-58781654D01*
X36978819Y-59924512D02*
X37169295Y-60019750D01*
X37169295Y-60019750D02*
X37550248Y-60019750D01*
X37550248Y-60019750D02*
X37740724Y-59924512D01*
X37740724Y-59924512D02*
X37835962Y-59734035D01*
X37835962Y-59734035D02*
X37835962Y-58972131D01*
X37835962Y-58972131D02*
X37740724Y-58781654D01*
X37740724Y-58781654D02*
X37550248Y-58686416D01*
X37550248Y-58686416D02*
X37169295Y-58686416D01*
X37169295Y-58686416D02*
X36978819Y-58781654D01*
X36978819Y-58781654D02*
X36883581Y-58972131D01*
X36883581Y-58972131D02*
X36883581Y-59162607D01*
X36883581Y-59162607D02*
X37835962Y-59353083D01*
X36026438Y-58686416D02*
X36026438Y-60019750D01*
X36026438Y-58876892D02*
X35931200Y-58781654D01*
X35931200Y-58781654D02*
X35740724Y-58686416D01*
X35740724Y-58686416D02*
X35455009Y-58686416D01*
X35455009Y-58686416D02*
X35264533Y-58781654D01*
X35264533Y-58781654D02*
X35169295Y-58972131D01*
X35169295Y-58972131D02*
X35169295Y-60019750D01*
X34502628Y-58686416D02*
X33740724Y-58686416D01*
X34216914Y-58019750D02*
X34216914Y-59734035D01*
X34216914Y-59734035D02*
X34121676Y-59924512D01*
X34121676Y-59924512D02*
X33931200Y-60019750D01*
X33931200Y-60019750D02*
X33740724Y-60019750D01*
X68121679Y-62668209D02*
X67169298Y-62668209D01*
X68312155Y-63239638D02*
X67645489Y-61239638D01*
X67645489Y-61239638D02*
X66978822Y-63239638D01*
X66026441Y-63239638D02*
X66216917Y-63144400D01*
X66216917Y-63144400D02*
X66312155Y-62953923D01*
X66312155Y-62953923D02*
X66312155Y-61239638D01*
X64978822Y-63239638D02*
X65169298Y-63144400D01*
X65169298Y-63144400D02*
X65264536Y-62953923D01*
X65264536Y-62953923D02*
X65264536Y-61239638D01*
X64216917Y-63239638D02*
X64216917Y-61906304D01*
X64216917Y-61239638D02*
X64312155Y-61334876D01*
X64312155Y-61334876D02*
X64216917Y-61430114D01*
X64216917Y-61430114D02*
X64121679Y-61334876D01*
X64121679Y-61334876D02*
X64216917Y-61239638D01*
X64216917Y-61239638D02*
X64216917Y-61430114D01*
X62407393Y-63239638D02*
X62407393Y-62192019D01*
X62407393Y-62192019D02*
X62502631Y-62001542D01*
X62502631Y-62001542D02*
X62693107Y-61906304D01*
X62693107Y-61906304D02*
X63074060Y-61906304D01*
X63074060Y-61906304D02*
X63264536Y-62001542D01*
X62407393Y-63144400D02*
X62597869Y-63239638D01*
X62597869Y-63239638D02*
X63074060Y-63239638D01*
X63074060Y-63239638D02*
X63264536Y-63144400D01*
X63264536Y-63144400D02*
X63359774Y-62953923D01*
X63359774Y-62953923D02*
X63359774Y-62763447D01*
X63359774Y-62763447D02*
X63264536Y-62572971D01*
X63264536Y-62572971D02*
X63074060Y-62477733D01*
X63074060Y-62477733D02*
X62597869Y-62477733D01*
X62597869Y-62477733D02*
X62407393Y-62382495D01*
X61455012Y-61906304D02*
X61455012Y-63239638D01*
X61455012Y-62096780D02*
X61359774Y-62001542D01*
X61359774Y-62001542D02*
X61169298Y-61906304D01*
X61169298Y-61906304D02*
X60883583Y-61906304D01*
X60883583Y-61906304D02*
X60693107Y-62001542D01*
X60693107Y-62001542D02*
X60597869Y-62192019D01*
X60597869Y-62192019D02*
X60597869Y-63239638D01*
X58788345Y-63144400D02*
X58978821Y-63239638D01*
X58978821Y-63239638D02*
X59359774Y-63239638D01*
X59359774Y-63239638D02*
X59550250Y-63144400D01*
X59550250Y-63144400D02*
X59645488Y-63049161D01*
X59645488Y-63049161D02*
X59740726Y-62858685D01*
X59740726Y-62858685D02*
X59740726Y-62287257D01*
X59740726Y-62287257D02*
X59645488Y-62096780D01*
X59645488Y-62096780D02*
X59550250Y-62001542D01*
X59550250Y-62001542D02*
X59359774Y-61906304D01*
X59359774Y-61906304D02*
X58978821Y-61906304D01*
X58978821Y-61906304D02*
X58788345Y-62001542D01*
X57169297Y-63144400D02*
X57359773Y-63239638D01*
X57359773Y-63239638D02*
X57740726Y-63239638D01*
X57740726Y-63239638D02*
X57931202Y-63144400D01*
X57931202Y-63144400D02*
X58026440Y-62953923D01*
X58026440Y-62953923D02*
X58026440Y-62192019D01*
X58026440Y-62192019D02*
X57931202Y-62001542D01*
X57931202Y-62001542D02*
X57740726Y-61906304D01*
X57740726Y-61906304D02*
X57359773Y-61906304D01*
X57359773Y-61906304D02*
X57169297Y-62001542D01*
X57169297Y-62001542D02*
X57074059Y-62192019D01*
X57074059Y-62192019D02*
X57074059Y-62382495D01*
X57074059Y-62382495D02*
X58026440Y-62572971D01*
X53550249Y-63049161D02*
X53645487Y-63144400D01*
X53645487Y-63144400D02*
X53931201Y-63239638D01*
X53931201Y-63239638D02*
X54121677Y-63239638D01*
X54121677Y-63239638D02*
X54407392Y-63144400D01*
X54407392Y-63144400D02*
X54597868Y-62953923D01*
X54597868Y-62953923D02*
X54693106Y-62763447D01*
X54693106Y-62763447D02*
X54788344Y-62382495D01*
X54788344Y-62382495D02*
X54788344Y-62096780D01*
X54788344Y-62096780D02*
X54693106Y-61715828D01*
X54693106Y-61715828D02*
X54597868Y-61525352D01*
X54597868Y-61525352D02*
X54407392Y-61334876D01*
X54407392Y-61334876D02*
X54121677Y-61239638D01*
X54121677Y-61239638D02*
X53931201Y-61239638D01*
X53931201Y-61239638D02*
X53645487Y-61334876D01*
X53645487Y-61334876D02*
X53550249Y-61430114D01*
X52407392Y-63239638D02*
X52597868Y-63144400D01*
X52597868Y-63144400D02*
X52693106Y-63049161D01*
X52693106Y-63049161D02*
X52788344Y-62858685D01*
X52788344Y-62858685D02*
X52788344Y-62287257D01*
X52788344Y-62287257D02*
X52693106Y-62096780D01*
X52693106Y-62096780D02*
X52597868Y-62001542D01*
X52597868Y-62001542D02*
X52407392Y-61906304D01*
X52407392Y-61906304D02*
X52121677Y-61906304D01*
X52121677Y-61906304D02*
X51931201Y-62001542D01*
X51931201Y-62001542D02*
X51835963Y-62096780D01*
X51835963Y-62096780D02*
X51740725Y-62287257D01*
X51740725Y-62287257D02*
X51740725Y-62858685D01*
X51740725Y-62858685D02*
X51835963Y-63049161D01*
X51835963Y-63049161D02*
X51931201Y-63144400D01*
X51931201Y-63144400D02*
X52121677Y-63239638D01*
X52121677Y-63239638D02*
X52407392Y-63239638D01*
X50883582Y-63049161D02*
X50788344Y-63144400D01*
X50788344Y-63144400D02*
X50883582Y-63239638D01*
X50883582Y-63239638D02*
X50978820Y-63144400D01*
X50978820Y-63144400D02*
X50883582Y-63049161D01*
X50883582Y-63049161D02*
X50883582Y-63239638D01*
D12*
X79258020Y-24850038D02*
X79258020Y-22850038D01*
X79258020Y-22850038D02*
X78781830Y-22850038D01*
X78781830Y-22850038D02*
X78496115Y-22945276D01*
X78496115Y-22945276D02*
X78305639Y-23135752D01*
X78305639Y-23135752D02*
X78210401Y-23326228D01*
X78210401Y-23326228D02*
X78115163Y-23707180D01*
X78115163Y-23707180D02*
X78115163Y-23992895D01*
X78115163Y-23992895D02*
X78210401Y-24373847D01*
X78210401Y-24373847D02*
X78305639Y-24564323D01*
X78305639Y-24564323D02*
X78496115Y-24754800D01*
X78496115Y-24754800D02*
X78781830Y-24850038D01*
X78781830Y-24850038D02*
X79258020Y-24850038D01*
X76496115Y-24754800D02*
X76686591Y-24850038D01*
X76686591Y-24850038D02*
X77067544Y-24850038D01*
X77067544Y-24850038D02*
X77258020Y-24754800D01*
X77258020Y-24754800D02*
X77353258Y-24564323D01*
X77353258Y-24564323D02*
X77353258Y-23802419D01*
X77353258Y-23802419D02*
X77258020Y-23611942D01*
X77258020Y-23611942D02*
X77067544Y-23516704D01*
X77067544Y-23516704D02*
X76686591Y-23516704D01*
X76686591Y-23516704D02*
X76496115Y-23611942D01*
X76496115Y-23611942D02*
X76400877Y-23802419D01*
X76400877Y-23802419D02*
X76400877Y-23992895D01*
X76400877Y-23992895D02*
X77353258Y-24183371D01*
X75638972Y-24754800D02*
X75448496Y-24850038D01*
X75448496Y-24850038D02*
X75067544Y-24850038D01*
X75067544Y-24850038D02*
X74877067Y-24754800D01*
X74877067Y-24754800D02*
X74781829Y-24564323D01*
X74781829Y-24564323D02*
X74781829Y-24469085D01*
X74781829Y-24469085D02*
X74877067Y-24278609D01*
X74877067Y-24278609D02*
X75067544Y-24183371D01*
X75067544Y-24183371D02*
X75353258Y-24183371D01*
X75353258Y-24183371D02*
X75543734Y-24088133D01*
X75543734Y-24088133D02*
X75638972Y-23897657D01*
X75638972Y-23897657D02*
X75638972Y-23802419D01*
X75638972Y-23802419D02*
X75543734Y-23611942D01*
X75543734Y-23611942D02*
X75353258Y-23516704D01*
X75353258Y-23516704D02*
X75067544Y-23516704D01*
X75067544Y-23516704D02*
X74877067Y-23611942D01*
X73924686Y-24850038D02*
X73924686Y-23516704D01*
X73924686Y-22850038D02*
X74019924Y-22945276D01*
X74019924Y-22945276D02*
X73924686Y-23040514D01*
X73924686Y-23040514D02*
X73829448Y-22945276D01*
X73829448Y-22945276D02*
X73924686Y-22850038D01*
X73924686Y-22850038D02*
X73924686Y-23040514D01*
X72115162Y-23516704D02*
X72115162Y-25135752D01*
X72115162Y-25135752D02*
X72210400Y-25326228D01*
X72210400Y-25326228D02*
X72305638Y-25421466D01*
X72305638Y-25421466D02*
X72496115Y-25516704D01*
X72496115Y-25516704D02*
X72781829Y-25516704D01*
X72781829Y-25516704D02*
X72972305Y-25421466D01*
X72115162Y-24754800D02*
X72305638Y-24850038D01*
X72305638Y-24850038D02*
X72686591Y-24850038D01*
X72686591Y-24850038D02*
X72877067Y-24754800D01*
X72877067Y-24754800D02*
X72972305Y-24659561D01*
X72972305Y-24659561D02*
X73067543Y-24469085D01*
X73067543Y-24469085D02*
X73067543Y-23897657D01*
X73067543Y-23897657D02*
X72972305Y-23707180D01*
X72972305Y-23707180D02*
X72877067Y-23611942D01*
X72877067Y-23611942D02*
X72686591Y-23516704D01*
X72686591Y-23516704D02*
X72305638Y-23516704D01*
X72305638Y-23516704D02*
X72115162Y-23611942D01*
X71162781Y-23516704D02*
X71162781Y-24850038D01*
X71162781Y-23707180D02*
X71067543Y-23611942D01*
X71067543Y-23611942D02*
X70877067Y-23516704D01*
X70877067Y-23516704D02*
X70591352Y-23516704D01*
X70591352Y-23516704D02*
X70400876Y-23611942D01*
X70400876Y-23611942D02*
X70305638Y-23802419D01*
X70305638Y-23802419D02*
X70305638Y-24850038D01*
X68591352Y-24754800D02*
X68781828Y-24850038D01*
X68781828Y-24850038D02*
X69162781Y-24850038D01*
X69162781Y-24850038D02*
X69353257Y-24754800D01*
X69353257Y-24754800D02*
X69448495Y-24564323D01*
X69448495Y-24564323D02*
X69448495Y-23802419D01*
X69448495Y-23802419D02*
X69353257Y-23611942D01*
X69353257Y-23611942D02*
X69162781Y-23516704D01*
X69162781Y-23516704D02*
X68781828Y-23516704D01*
X68781828Y-23516704D02*
X68591352Y-23611942D01*
X68591352Y-23611942D02*
X68496114Y-23802419D01*
X68496114Y-23802419D02*
X68496114Y-23992895D01*
X68496114Y-23992895D02*
X69448495Y-24183371D01*
X66781828Y-24850038D02*
X66781828Y-22850038D01*
X66781828Y-24754800D02*
X66972304Y-24850038D01*
X66972304Y-24850038D02*
X67353257Y-24850038D01*
X67353257Y-24850038D02*
X67543733Y-24754800D01*
X67543733Y-24754800D02*
X67638971Y-24659561D01*
X67638971Y-24659561D02*
X67734209Y-24469085D01*
X67734209Y-24469085D02*
X67734209Y-23897657D01*
X67734209Y-23897657D02*
X67638971Y-23707180D01*
X67638971Y-23707180D02*
X67543733Y-23611942D01*
X67543733Y-23611942D02*
X67353257Y-23516704D01*
X67353257Y-23516704D02*
X66972304Y-23516704D01*
X66972304Y-23516704D02*
X66781828Y-23611942D01*
X63638970Y-23802419D02*
X63353256Y-23897657D01*
X63353256Y-23897657D02*
X63258018Y-23992895D01*
X63258018Y-23992895D02*
X63162780Y-24183371D01*
X63162780Y-24183371D02*
X63162780Y-24469085D01*
X63162780Y-24469085D02*
X63258018Y-24659561D01*
X63258018Y-24659561D02*
X63353256Y-24754800D01*
X63353256Y-24754800D02*
X63543732Y-24850038D01*
X63543732Y-24850038D02*
X64305637Y-24850038D01*
X64305637Y-24850038D02*
X64305637Y-22850038D01*
X64305637Y-22850038D02*
X63638970Y-22850038D01*
X63638970Y-22850038D02*
X63448494Y-22945276D01*
X63448494Y-22945276D02*
X63353256Y-23040514D01*
X63353256Y-23040514D02*
X63258018Y-23230990D01*
X63258018Y-23230990D02*
X63258018Y-23421466D01*
X63258018Y-23421466D02*
X63353256Y-23611942D01*
X63353256Y-23611942D02*
X63448494Y-23707180D01*
X63448494Y-23707180D02*
X63638970Y-23802419D01*
X63638970Y-23802419D02*
X64305637Y-23802419D01*
X62496113Y-23516704D02*
X62019923Y-24850038D01*
X61543732Y-23516704D02*
X62019923Y-24850038D01*
X62019923Y-24850038D02*
X62210399Y-25326228D01*
X62210399Y-25326228D02*
X62305637Y-25421466D01*
X62305637Y-25421466D02*
X62496113Y-25516704D01*
X60781827Y-24659561D02*
X60686589Y-24754800D01*
X60686589Y-24754800D02*
X60781827Y-24850038D01*
X60781827Y-24850038D02*
X60877065Y-24754800D01*
X60877065Y-24754800D02*
X60781827Y-24659561D01*
X60781827Y-24659561D02*
X60781827Y-24850038D01*
X60781827Y-23611942D02*
X60686589Y-23707180D01*
X60686589Y-23707180D02*
X60781827Y-23802419D01*
X60781827Y-23802419D02*
X60877065Y-23707180D01*
X60877065Y-23707180D02*
X60781827Y-23611942D01*
X60781827Y-23611942D02*
X60781827Y-23802419D01*
X58305636Y-24850038D02*
X58305636Y-22850038D01*
X58305636Y-22850038D02*
X57638969Y-24278609D01*
X57638969Y-24278609D02*
X56972303Y-22850038D01*
X56972303Y-22850038D02*
X56972303Y-24850038D01*
X55162779Y-24850038D02*
X55162779Y-23802419D01*
X55162779Y-23802419D02*
X55258017Y-23611942D01*
X55258017Y-23611942D02*
X55448493Y-23516704D01*
X55448493Y-23516704D02*
X55829446Y-23516704D01*
X55829446Y-23516704D02*
X56019922Y-23611942D01*
X55162779Y-24754800D02*
X55353255Y-24850038D01*
X55353255Y-24850038D02*
X55829446Y-24850038D01*
X55829446Y-24850038D02*
X56019922Y-24754800D01*
X56019922Y-24754800D02*
X56115160Y-24564323D01*
X56115160Y-24564323D02*
X56115160Y-24373847D01*
X56115160Y-24373847D02*
X56019922Y-24183371D01*
X56019922Y-24183371D02*
X55829446Y-24088133D01*
X55829446Y-24088133D02*
X55353255Y-24088133D01*
X55353255Y-24088133D02*
X55162779Y-23992895D01*
X54496112Y-23516704D02*
X53734208Y-23516704D01*
X54210398Y-22850038D02*
X54210398Y-24564323D01*
X54210398Y-24564323D02*
X54115160Y-24754800D01*
X54115160Y-24754800D02*
X53924684Y-24850038D01*
X53924684Y-24850038D02*
X53734208Y-24850038D01*
X53353255Y-23516704D02*
X52591351Y-23516704D01*
X53067541Y-22850038D02*
X53067541Y-24564323D01*
X53067541Y-24564323D02*
X52972303Y-24754800D01*
X52972303Y-24754800D02*
X52781827Y-24850038D01*
X52781827Y-24850038D02*
X52591351Y-24850038D01*
X51924684Y-24850038D02*
X51924684Y-22850038D01*
X51067541Y-24850038D02*
X51067541Y-23802419D01*
X51067541Y-23802419D02*
X51162779Y-23611942D01*
X51162779Y-23611942D02*
X51353255Y-23516704D01*
X51353255Y-23516704D02*
X51638970Y-23516704D01*
X51638970Y-23516704D02*
X51829446Y-23611942D01*
X51829446Y-23611942D02*
X51924684Y-23707180D01*
X49353255Y-24754800D02*
X49543731Y-24850038D01*
X49543731Y-24850038D02*
X49924684Y-24850038D01*
X49924684Y-24850038D02*
X50115160Y-24754800D01*
X50115160Y-24754800D02*
X50210398Y-24564323D01*
X50210398Y-24564323D02*
X50210398Y-23802419D01*
X50210398Y-23802419D02*
X50115160Y-23611942D01*
X50115160Y-23611942D02*
X49924684Y-23516704D01*
X49924684Y-23516704D02*
X49543731Y-23516704D01*
X49543731Y-23516704D02*
X49353255Y-23611942D01*
X49353255Y-23611942D02*
X49258017Y-23802419D01*
X49258017Y-23802419D02*
X49258017Y-23992895D01*
X49258017Y-23992895D02*
X50210398Y-24183371D01*
X48591350Y-23516704D02*
X48210398Y-24850038D01*
X48210398Y-24850038D02*
X47829445Y-23897657D01*
X47829445Y-23897657D02*
X47448493Y-24850038D01*
X47448493Y-24850038D02*
X47067541Y-23516704D01*
X44877064Y-24754800D02*
X44591350Y-24850038D01*
X44591350Y-24850038D02*
X44115159Y-24850038D01*
X44115159Y-24850038D02*
X43924683Y-24754800D01*
X43924683Y-24754800D02*
X43829445Y-24659561D01*
X43829445Y-24659561D02*
X43734207Y-24469085D01*
X43734207Y-24469085D02*
X43734207Y-24278609D01*
X43734207Y-24278609D02*
X43829445Y-24088133D01*
X43829445Y-24088133D02*
X43924683Y-23992895D01*
X43924683Y-23992895D02*
X44115159Y-23897657D01*
X44115159Y-23897657D02*
X44496112Y-23802419D01*
X44496112Y-23802419D02*
X44686588Y-23707180D01*
X44686588Y-23707180D02*
X44781826Y-23611942D01*
X44781826Y-23611942D02*
X44877064Y-23421466D01*
X44877064Y-23421466D02*
X44877064Y-23230990D01*
X44877064Y-23230990D02*
X44781826Y-23040514D01*
X44781826Y-23040514D02*
X44686588Y-22945276D01*
X44686588Y-22945276D02*
X44496112Y-22850038D01*
X44496112Y-22850038D02*
X44019921Y-22850038D01*
X44019921Y-22850038D02*
X43734207Y-22945276D01*
X42019921Y-24754800D02*
X42210397Y-24850038D01*
X42210397Y-24850038D02*
X42591350Y-24850038D01*
X42591350Y-24850038D02*
X42781826Y-24754800D01*
X42781826Y-24754800D02*
X42877064Y-24659561D01*
X42877064Y-24659561D02*
X42972302Y-24469085D01*
X42972302Y-24469085D02*
X42972302Y-23897657D01*
X42972302Y-23897657D02*
X42877064Y-23707180D01*
X42877064Y-23707180D02*
X42781826Y-23611942D01*
X42781826Y-23611942D02*
X42591350Y-23516704D01*
X42591350Y-23516704D02*
X42210397Y-23516704D01*
X42210397Y-23516704D02*
X42019921Y-23611942D01*
X40305635Y-24850038D02*
X40305635Y-23802419D01*
X40305635Y-23802419D02*
X40400873Y-23611942D01*
X40400873Y-23611942D02*
X40591349Y-23516704D01*
X40591349Y-23516704D02*
X40972302Y-23516704D01*
X40972302Y-23516704D02*
X41162778Y-23611942D01*
X40305635Y-24754800D02*
X40496111Y-24850038D01*
X40496111Y-24850038D02*
X40972302Y-24850038D01*
X40972302Y-24850038D02*
X41162778Y-24754800D01*
X41162778Y-24754800D02*
X41258016Y-24564323D01*
X41258016Y-24564323D02*
X41258016Y-24373847D01*
X41258016Y-24373847D02*
X41162778Y-24183371D01*
X41162778Y-24183371D02*
X40972302Y-24088133D01*
X40972302Y-24088133D02*
X40496111Y-24088133D01*
X40496111Y-24088133D02*
X40305635Y-23992895D01*
X39067540Y-24850038D02*
X39258016Y-24754800D01*
X39258016Y-24754800D02*
X39353254Y-24564323D01*
X39353254Y-24564323D02*
X39353254Y-22850038D01*
X37448492Y-24850038D02*
X37448492Y-23802419D01*
X37448492Y-23802419D02*
X37543730Y-23611942D01*
X37543730Y-23611942D02*
X37734206Y-23516704D01*
X37734206Y-23516704D02*
X38115159Y-23516704D01*
X38115159Y-23516704D02*
X38305635Y-23611942D01*
X37448492Y-24754800D02*
X37638968Y-24850038D01*
X37638968Y-24850038D02*
X38115159Y-24850038D01*
X38115159Y-24850038D02*
X38305635Y-24754800D01*
X38305635Y-24754800D02*
X38400873Y-24564323D01*
X38400873Y-24564323D02*
X38400873Y-24373847D01*
X38400873Y-24373847D02*
X38305635Y-24183371D01*
X38305635Y-24183371D02*
X38115159Y-24088133D01*
X38115159Y-24088133D02*
X37638968Y-24088133D01*
X37638968Y-24088133D02*
X37448492Y-23992895D01*
D13*
X58156904Y-39327319D02*
X58156904Y-40136842D01*
X58156904Y-40136842D02*
X58109285Y-40232080D01*
X58109285Y-40232080D02*
X58061666Y-40279700D01*
X58061666Y-40279700D02*
X57966428Y-40327319D01*
X57966428Y-40327319D02*
X57775952Y-40327319D01*
X57775952Y-40327319D02*
X57680714Y-40279700D01*
X57680714Y-40279700D02*
X57633095Y-40232080D01*
X57633095Y-40232080D02*
X57585476Y-40136842D01*
X57585476Y-40136842D02*
X57585476Y-39327319D01*
X56585476Y-40327319D02*
X57156904Y-40327319D01*
X56871190Y-40327319D02*
X56871190Y-39327319D01*
X56871190Y-39327319D02*
X56966428Y-39470176D01*
X56966428Y-39470176D02*
X57061666Y-39565414D01*
X57061666Y-39565414D02*
X57156904Y-39613033D01*
X66184819Y-44720833D02*
X65708628Y-44387500D01*
X66184819Y-44149405D02*
X65184819Y-44149405D01*
X65184819Y-44149405D02*
X65184819Y-44530357D01*
X65184819Y-44530357D02*
X65232438Y-44625595D01*
X65232438Y-44625595D02*
X65280057Y-44673214D01*
X65280057Y-44673214D02*
X65375295Y-44720833D01*
X65375295Y-44720833D02*
X65518152Y-44720833D01*
X65518152Y-44720833D02*
X65613390Y-44673214D01*
X65613390Y-44673214D02*
X65661009Y-44625595D01*
X65661009Y-44625595D02*
X65708628Y-44530357D01*
X65708628Y-44530357D02*
X65708628Y-44149405D01*
X66184819Y-45673214D02*
X66184819Y-45101786D01*
X66184819Y-45387500D02*
X65184819Y-45387500D01*
X65184819Y-45387500D02*
X65327676Y-45292262D01*
X65327676Y-45292262D02*
X65422914Y-45197024D01*
X65422914Y-45197024D02*
X65470533Y-45101786D01*
X70856904Y-40277319D02*
X70856904Y-41086842D01*
X70856904Y-41086842D02*
X70809285Y-41182080D01*
X70809285Y-41182080D02*
X70761666Y-41229700D01*
X70761666Y-41229700D02*
X70666428Y-41277319D01*
X70666428Y-41277319D02*
X70475952Y-41277319D01*
X70475952Y-41277319D02*
X70380714Y-41229700D01*
X70380714Y-41229700D02*
X70333095Y-41182080D01*
X70333095Y-41182080D02*
X70285476Y-41086842D01*
X70285476Y-41086842D02*
X70285476Y-40277319D01*
X69856904Y-40372557D02*
X69809285Y-40324938D01*
X69809285Y-40324938D02*
X69714047Y-40277319D01*
X69714047Y-40277319D02*
X69475952Y-40277319D01*
X69475952Y-40277319D02*
X69380714Y-40324938D01*
X69380714Y-40324938D02*
X69333095Y-40372557D01*
X69333095Y-40372557D02*
X69285476Y-40467795D01*
X69285476Y-40467795D02*
X69285476Y-40563033D01*
X69285476Y-40563033D02*
X69333095Y-40705890D01*
X69333095Y-40705890D02*
X69904523Y-41277319D01*
X69904523Y-41277319D02*
X69285476Y-41277319D01*
D14*
%TO.C,G\u002A\u002A\u002A*%
G36*
X81964068Y-54388888D02*
G01*
X82041840Y-54439737D01*
X81925991Y-54679079D01*
X81836962Y-54892857D01*
X81785368Y-55016746D01*
X81782288Y-55085576D01*
X81762138Y-55535825D01*
X81826807Y-55821518D01*
X81934873Y-55840651D01*
X82065197Y-55477109D01*
X82211683Y-54741666D01*
X82238190Y-54603356D01*
X82382476Y-54163163D01*
X82545787Y-53985714D01*
X82551321Y-53985889D01*
X82665160Y-54171180D01*
X82636452Y-54640873D01*
X82580796Y-54983332D01*
X82595332Y-55085153D01*
X82714733Y-54842460D01*
X82770089Y-54723176D01*
X82977195Y-54428293D01*
X83096480Y-54459519D01*
X83059394Y-54821102D01*
X83047827Y-54866503D01*
X83024372Y-55112624D01*
X83176993Y-55022689D01*
X83193251Y-55006619D01*
X83491447Y-54796446D01*
X83578424Y-54868085D01*
X83377381Y-55166439D01*
X83102966Y-55403617D01*
X82832179Y-55519217D01*
X82741603Y-55544108D01*
X82630592Y-55800000D01*
X82599091Y-55939089D01*
X82379524Y-56102381D01*
X82301806Y-56117665D01*
X82240964Y-56129630D01*
X81896217Y-56343783D01*
X81835417Y-56410436D01*
X81836812Y-56532727D01*
X82183261Y-56528844D01*
X82192561Y-56527777D01*
X82686691Y-56327047D01*
X83136281Y-55932743D01*
X83182154Y-55876423D01*
X83513318Y-55571682D01*
X83750634Y-55510273D01*
X83754738Y-55512972D01*
X83748164Y-55708963D01*
X83482508Y-56009455D01*
X83461691Y-56027010D01*
X83217650Y-56286991D01*
X83236270Y-56398055D01*
X83364138Y-56372705D01*
X83689842Y-56162857D01*
X83820942Y-56056743D01*
X83931746Y-56076462D01*
X83779031Y-56379076D01*
X83424667Y-56675483D01*
X83050900Y-56807936D01*
X82912007Y-56826135D01*
X82869861Y-56852317D01*
X82624314Y-57004856D01*
X82614058Y-57052933D01*
X82828845Y-57129772D01*
X83368369Y-57106876D01*
X83776786Y-57071494D01*
X83980757Y-57093718D01*
X83830953Y-57198168D01*
X83619157Y-57322007D01*
X83629365Y-57401616D01*
X83689949Y-57446865D01*
X83625633Y-57513492D01*
X83528572Y-57614040D01*
X83129797Y-57717449D01*
X82588558Y-57692600D01*
X82031712Y-57649241D01*
X81530225Y-57709516D01*
X81355456Y-57796599D01*
X81137387Y-58110699D01*
X81169133Y-58455669D01*
X81462302Y-58667745D01*
X81518728Y-58697816D01*
X81305003Y-58730238D01*
X80807143Y-58742831D01*
X80433089Y-58736275D01*
X80131164Y-58708180D01*
X80163771Y-58665475D01*
X80386069Y-58546638D01*
X80466152Y-58151599D01*
X80447000Y-58048042D01*
X80319315Y-57833437D01*
X80003862Y-57735344D01*
X79393428Y-57709588D01*
X78575624Y-57625381D01*
X78309259Y-57513492D01*
X82923810Y-57513492D01*
X83024604Y-57614285D01*
X83125397Y-57513492D01*
X83024604Y-57412698D01*
X82923810Y-57513492D01*
X78309259Y-57513492D01*
X78001611Y-57384262D01*
X81398438Y-57384262D01*
X81608996Y-57350287D01*
X82004800Y-57103906D01*
X82104941Y-57025925D01*
X82255739Y-56852317D01*
X82079880Y-56807936D01*
X81876563Y-56853137D01*
X81797909Y-56908730D01*
X81512699Y-57110317D01*
X81441102Y-57204943D01*
X81398438Y-57384262D01*
X78001611Y-57384262D01*
X77881523Y-57333818D01*
X77380159Y-56963538D01*
X77884127Y-57095960D01*
X78669668Y-57288379D01*
X79151904Y-57367337D01*
X79257588Y-57311392D01*
X78989005Y-57119031D01*
X78348442Y-56788740D01*
X77986989Y-56596357D01*
X77670738Y-56369628D01*
X77649664Y-56247731D01*
X77826300Y-56241449D01*
X78193286Y-56410387D01*
X78392427Y-56507847D01*
X78496544Y-56396074D01*
X78350391Y-56131872D01*
X78289167Y-56041110D01*
X78197005Y-55703702D01*
X78191167Y-55355484D01*
X78285438Y-55195238D01*
X78314636Y-55209590D01*
X78454806Y-55469029D01*
X78604527Y-55951190D01*
X78826135Y-56512394D01*
X79137061Y-56709455D01*
X79416394Y-56798534D01*
X79775738Y-57112313D01*
X80000499Y-57342846D01*
X80199867Y-57381615D01*
X80236971Y-57209821D01*
X80081498Y-56859538D01*
X79776517Y-56503191D01*
X79459007Y-56303968D01*
X80309349Y-56303968D01*
X80336551Y-56550620D01*
X80504762Y-57009523D01*
X80541642Y-57065120D01*
X80669720Y-57173185D01*
X80700176Y-56908730D01*
X80672974Y-56662078D01*
X80504762Y-56203174D01*
X80467882Y-56147577D01*
X80430854Y-56116335D01*
X80970453Y-56116335D01*
X81062512Y-56700678D01*
X81163493Y-56902187D01*
X81244393Y-56707890D01*
X81277514Y-56117665D01*
X81268365Y-55829147D01*
X81201612Y-55414881D01*
X81088561Y-55308987D01*
X81070791Y-55323335D01*
X80972339Y-55620491D01*
X80970453Y-56116335D01*
X80430854Y-56116335D01*
X80339804Y-56039513D01*
X80309349Y-56303968D01*
X79459007Y-56303968D01*
X79420293Y-56279677D01*
X79190824Y-56160442D01*
X79289134Y-56005360D01*
X79400695Y-55826379D01*
X79164579Y-55573827D01*
X78931112Y-55353009D01*
X78729499Y-55009924D01*
X78713795Y-54926409D01*
X78757127Y-54827791D01*
X79010561Y-55008343D01*
X79174355Y-55136761D01*
X79283358Y-55140446D01*
X79201951Y-54815712D01*
X79147696Y-54493236D01*
X79324063Y-54165221D01*
X79677741Y-54006521D01*
X79848363Y-54148892D01*
X79879906Y-54640873D01*
X79879528Y-54653155D01*
X79857976Y-55065037D01*
X79808706Y-55102092D01*
X79698413Y-54792063D01*
X79587684Y-54471481D01*
X79539898Y-54491491D01*
X79523331Y-54892857D01*
X79596720Y-55400099D01*
X79830811Y-55900793D01*
X80023417Y-56135364D01*
X80106717Y-56162212D01*
X80043584Y-55845517D01*
X80008346Y-55556731D01*
X80049774Y-55025149D01*
X80054042Y-55008976D01*
X80344020Y-55008976D01*
X80398595Y-55423586D01*
X80501996Y-55682168D01*
X80597304Y-55573423D01*
X80639154Y-55085576D01*
X80637887Y-55000902D01*
X80623930Y-54892857D01*
X81311112Y-54892857D01*
X81411905Y-54993650D01*
X81512699Y-54892857D01*
X81411905Y-54792063D01*
X81311112Y-54892857D01*
X80623930Y-54892857D01*
X80581713Y-54566034D01*
X80467962Y-54388888D01*
X80461489Y-54389334D01*
X80359403Y-54578909D01*
X80344020Y-55008976D01*
X80054042Y-55008976D01*
X80181422Y-54526322D01*
X80309667Y-54288095D01*
X81311112Y-54288095D01*
X81411905Y-54388888D01*
X81512699Y-54288095D01*
X81411905Y-54187301D01*
X81311112Y-54288095D01*
X80309667Y-54288095D01*
X80365959Y-54183528D01*
X80566059Y-54120044D01*
X80664475Y-54138062D01*
X80530476Y-53923617D01*
X80454689Y-53827312D01*
X80366058Y-53626797D01*
X80580873Y-53582539D01*
X80743391Y-53612650D01*
X80907937Y-53808810D01*
X80961575Y-53914807D01*
X81220521Y-53775659D01*
X81303427Y-53710487D01*
X81517027Y-53655355D01*
X81647207Y-53952563D01*
X81759848Y-54219791D01*
X81842339Y-54288095D01*
X81964068Y-54388888D01*
G37*
G36*
X87369026Y-47526616D02*
G01*
X87664684Y-47837301D01*
X87750853Y-47927849D01*
X88287269Y-48643650D01*
X88549162Y-48993123D01*
X88753616Y-49450000D01*
X89042535Y-50095626D01*
X89057980Y-50130139D01*
X89082535Y-50256349D01*
X89239419Y-51062698D01*
X89311690Y-51434159D01*
X89320849Y-51869047D01*
X89337830Y-52675396D01*
X89344675Y-53000444D01*
X89341667Y-53076403D01*
X89314056Y-53481746D01*
X89274468Y-54062911D01*
X89237193Y-54288095D01*
X89170453Y-54691279D01*
X89033150Y-54939540D01*
X88936748Y-55003812D01*
X88896063Y-55289603D01*
X88865777Y-55552711D01*
X88737661Y-55900793D01*
X88667185Y-56092273D01*
X88384907Y-56707142D01*
X88338025Y-56809261D01*
X87922700Y-57617650D01*
X87465610Y-58431412D01*
X87034919Y-59126190D01*
X87011157Y-59164522D01*
X86603741Y-59730952D01*
X86532630Y-59875426D01*
X86529612Y-59932539D01*
X86510973Y-60285317D01*
X86518656Y-60444617D01*
X86350126Y-60598031D01*
X85873504Y-60638095D01*
X85798588Y-60639202D01*
X85307948Y-60704530D01*
X85040477Y-60839682D01*
X85039418Y-60841284D01*
X84787423Y-60921975D01*
X84197231Y-60985536D01*
X83332466Y-61027325D01*
X82256754Y-61042703D01*
X81140655Y-61052992D01*
X79993957Y-61080984D01*
X78981167Y-61122319D01*
X78236905Y-61172647D01*
X78103302Y-61185426D01*
X77433945Y-61264581D01*
X77065195Y-61363281D01*
X76908720Y-61520691D01*
X76905592Y-61545238D01*
X76876191Y-61775975D01*
X76876656Y-61831538D01*
X76917366Y-62064328D01*
X77088697Y-62189860D01*
X77481471Y-62241045D01*
X78186508Y-62250793D01*
X78862015Y-62239972D01*
X79274079Y-62187457D01*
X79330091Y-62150000D01*
X79900000Y-62150000D01*
X80000794Y-62250793D01*
X80101588Y-62150000D01*
X80706350Y-62150000D01*
X80807143Y-62250793D01*
X80907937Y-62150000D01*
X80807143Y-62049206D01*
X80706350Y-62150000D01*
X80101588Y-62150000D01*
X80000794Y-62049206D01*
X79900000Y-62150000D01*
X79330091Y-62150000D01*
X79455987Y-62065810D01*
X79496826Y-61847619D01*
X79497172Y-61818655D01*
X79569009Y-61580361D01*
X79837076Y-61470824D01*
X80403969Y-61444444D01*
X80469136Y-61444598D01*
X81005298Y-61476526D01*
X81251757Y-61595666D01*
X81311112Y-61847619D01*
X81314553Y-61926578D01*
X81441849Y-62150000D01*
X81459681Y-62181298D01*
X81891190Y-62250793D01*
X82345862Y-62172076D01*
X82383009Y-62150000D01*
X83125397Y-62150000D01*
X83226191Y-62250793D01*
X83326985Y-62150000D01*
X83931746Y-62150000D01*
X84032540Y-62250793D01*
X84133334Y-62150000D01*
X84738096Y-62150000D01*
X84838889Y-62250793D01*
X84939683Y-62150000D01*
X85544445Y-62150000D01*
X85645239Y-62250793D01*
X85746032Y-62150000D01*
X85645239Y-62049206D01*
X85544445Y-62150000D01*
X84939683Y-62150000D01*
X84838889Y-62049206D01*
X84738096Y-62150000D01*
X84133334Y-62150000D01*
X84032540Y-62049206D01*
X83931746Y-62150000D01*
X83326985Y-62150000D01*
X83226191Y-62049206D01*
X83125397Y-62150000D01*
X82383009Y-62150000D01*
X82722223Y-61948412D01*
X82827715Y-61857774D01*
X83184510Y-61733149D01*
X83802115Y-61666063D01*
X84750882Y-61646031D01*
X85107210Y-61650070D01*
X85859707Y-61688025D01*
X86408202Y-61757390D01*
X86653175Y-61847619D01*
X86680896Y-61937024D01*
X86513882Y-62052293D01*
X86357056Y-62084594D01*
X86432360Y-62150000D01*
X86521576Y-62227489D01*
X86626080Y-62361202D01*
X86783986Y-62820224D01*
X86805874Y-62956349D01*
X86885097Y-63449059D01*
X86897305Y-63561111D01*
X86919269Y-63762698D01*
X86924439Y-63810146D01*
X87037971Y-64503352D01*
X87055139Y-64569047D01*
X87167886Y-65000479D01*
X87281687Y-65341799D01*
X87292456Y-65374099D01*
X87358731Y-65690901D01*
X87279154Y-65727359D01*
X86847850Y-65778443D01*
X86075718Y-65820549D01*
X85000864Y-65852315D01*
X83661391Y-65872375D01*
X82095406Y-65879365D01*
X76832081Y-65879365D01*
X76890917Y-65375396D01*
X77480953Y-65375396D01*
X77581746Y-65476190D01*
X77682540Y-65375396D01*
X80706350Y-65375396D01*
X80807143Y-65476190D01*
X80907937Y-65375396D01*
X81512699Y-65375396D01*
X81613492Y-65476190D01*
X81714286Y-65375396D01*
X83125397Y-65375396D01*
X83226191Y-65476190D01*
X83326985Y-65375396D01*
X83931746Y-65375396D01*
X84032540Y-65476190D01*
X84133334Y-65375396D01*
X84738096Y-65375396D01*
X84838889Y-65476190D01*
X84912647Y-65402432D01*
X86184865Y-65402432D01*
X86350794Y-65476190D01*
X86457514Y-65461642D01*
X86485186Y-65341799D01*
X86455640Y-65317672D01*
X86216403Y-65341799D01*
X86198928Y-65375396D01*
X86184865Y-65402432D01*
X84912647Y-65402432D01*
X84939683Y-65375396D01*
X84838889Y-65274603D01*
X84738096Y-65375396D01*
X84133334Y-65375396D01*
X84032540Y-65274603D01*
X83931746Y-65375396D01*
X83326985Y-65375396D01*
X83226191Y-65274603D01*
X83125397Y-65375396D01*
X81714286Y-65375396D01*
X81613492Y-65274603D01*
X81512699Y-65375396D01*
X80907937Y-65375396D01*
X80807143Y-65274603D01*
X80706350Y-65375396D01*
X77682540Y-65375396D01*
X77581746Y-65274603D01*
X77480953Y-65375396D01*
X76890917Y-65375396D01*
X76914451Y-65173809D01*
X76924356Y-65075014D01*
X76919750Y-64643485D01*
X76882215Y-64569047D01*
X77480953Y-64569047D01*
X77581746Y-64669841D01*
X77682540Y-64569047D01*
X79093651Y-64569047D01*
X79194445Y-64669841D01*
X79295239Y-64569047D01*
X79900000Y-64569047D01*
X80000794Y-64669841D01*
X80101588Y-64569047D01*
X80706350Y-64569047D01*
X80807143Y-64669841D01*
X80907937Y-64569047D01*
X81512699Y-64569047D01*
X81613492Y-64669841D01*
X81714286Y-64569047D01*
X83125397Y-64569047D01*
X83226191Y-64669841D01*
X83326985Y-64569047D01*
X83931746Y-64569047D01*
X84032540Y-64669841D01*
X84133334Y-64569047D01*
X84738096Y-64569047D01*
X84838889Y-64669841D01*
X84939683Y-64569047D01*
X86350794Y-64569047D01*
X86451588Y-64669841D01*
X86552381Y-64569047D01*
X86451588Y-64468254D01*
X86350794Y-64569047D01*
X84939683Y-64569047D01*
X84838889Y-64468254D01*
X84738096Y-64569047D01*
X84133334Y-64569047D01*
X84032540Y-64468254D01*
X83931746Y-64569047D01*
X83326985Y-64569047D01*
X83226191Y-64468254D01*
X83125397Y-64569047D01*
X81714286Y-64569047D01*
X81613492Y-64468254D01*
X81512699Y-64569047D01*
X80907937Y-64569047D01*
X80807143Y-64468254D01*
X80706350Y-64569047D01*
X80101588Y-64569047D01*
X80000794Y-64468254D01*
X79900000Y-64569047D01*
X79295239Y-64569047D01*
X79194445Y-64468254D01*
X79093651Y-64569047D01*
X77682540Y-64569047D01*
X77581746Y-64468254D01*
X77480953Y-64569047D01*
X76882215Y-64569047D01*
X76831390Y-64468254D01*
X76664795Y-64344317D01*
X76444832Y-63982931D01*
X76337093Y-63789734D01*
X76710262Y-63789734D01*
X76876191Y-63863492D01*
X76982911Y-63848944D01*
X77002824Y-63762698D01*
X77480953Y-63762698D01*
X77581746Y-63863492D01*
X77682540Y-63762698D01*
X78287302Y-63762698D01*
X78388096Y-63863492D01*
X78461853Y-63789734D01*
X79129309Y-63789734D01*
X79295239Y-63863492D01*
X79401958Y-63848944D01*
X79421872Y-63762698D01*
X79900000Y-63762698D01*
X80000794Y-63863492D01*
X80101588Y-63762698D01*
X80706350Y-63762698D01*
X80807143Y-63863492D01*
X80907937Y-63762698D01*
X80903885Y-63758646D01*
X81555769Y-63758646D01*
X81556178Y-63762698D01*
X81579895Y-63997883D01*
X81640529Y-64029421D01*
X81714286Y-63863492D01*
X81700546Y-63762698D01*
X83125397Y-63762698D01*
X83226191Y-63863492D01*
X83326985Y-63762698D01*
X86350794Y-63762698D01*
X86451588Y-63863492D01*
X86552381Y-63762698D01*
X86451588Y-63661904D01*
X86350794Y-63762698D01*
X83326985Y-63762698D01*
X83226191Y-63661904D01*
X83125397Y-63762698D01*
X81700546Y-63762698D01*
X81699738Y-63756772D01*
X81579895Y-63729100D01*
X81555769Y-63758646D01*
X80903885Y-63758646D01*
X80807143Y-63661904D01*
X80706350Y-63762698D01*
X80101588Y-63762698D01*
X80000794Y-63661904D01*
X79933598Y-63729100D01*
X79900000Y-63762698D01*
X79421872Y-63762698D01*
X79429630Y-63729100D01*
X79400084Y-63704974D01*
X79160847Y-63729100D01*
X79143371Y-63762698D01*
X79129309Y-63789734D01*
X78461853Y-63789734D01*
X78488889Y-63762698D01*
X78388096Y-63661904D01*
X78287302Y-63762698D01*
X77682540Y-63762698D01*
X77581746Y-63661904D01*
X77514551Y-63729100D01*
X77480953Y-63762698D01*
X77002824Y-63762698D01*
X77010582Y-63729100D01*
X76981036Y-63704974D01*
X76741799Y-63729100D01*
X76710262Y-63789734D01*
X76337093Y-63789734D01*
X76326864Y-63771392D01*
X76136911Y-63616984D01*
X75936229Y-63561111D01*
X81109524Y-63561111D01*
X81210318Y-63661904D01*
X81311112Y-63561111D01*
X81210318Y-63460317D01*
X81109524Y-63561111D01*
X75936229Y-63561111D01*
X75801151Y-63523503D01*
X75233816Y-63468260D01*
X74349137Y-63428566D01*
X73728212Y-63402068D01*
X73035657Y-63347763D01*
X72589477Y-63257172D01*
X72294298Y-63107289D01*
X72138566Y-62956349D01*
X73449207Y-62956349D01*
X73550000Y-63057142D01*
X73650794Y-62956349D01*
X83931746Y-62956349D01*
X84032540Y-63057142D01*
X84133334Y-62956349D01*
X84738096Y-62956349D01*
X84838889Y-63057142D01*
X84939683Y-62956349D01*
X85544445Y-62956349D01*
X85645239Y-63057142D01*
X85746032Y-62956349D01*
X86350794Y-62956349D01*
X86451588Y-63057142D01*
X86552381Y-62956349D01*
X86451588Y-62855555D01*
X86350794Y-62956349D01*
X85746032Y-62956349D01*
X85645239Y-62855555D01*
X85544445Y-62956349D01*
X84939683Y-62956349D01*
X84838889Y-62855555D01*
X84738096Y-62956349D01*
X84133334Y-62956349D01*
X84032540Y-62855555D01*
X83931746Y-62956349D01*
X73650794Y-62956349D01*
X73550000Y-62855555D01*
X73449207Y-62956349D01*
X72138566Y-62956349D01*
X72054745Y-62875107D01*
X71814047Y-62526226D01*
X71726624Y-62150000D01*
X72038096Y-62150000D01*
X72138889Y-62250793D01*
X72239683Y-62150000D01*
X72235631Y-62145948D01*
X76112911Y-62145948D01*
X76113320Y-62150000D01*
X76137037Y-62385185D01*
X76197671Y-62416722D01*
X76271429Y-62250793D01*
X76256881Y-62144074D01*
X76137037Y-62116402D01*
X76112911Y-62145948D01*
X72235631Y-62145948D01*
X72138889Y-62049206D01*
X72038096Y-62150000D01*
X71726624Y-62150000D01*
X71647098Y-61807755D01*
X71704243Y-61545238D01*
X72844445Y-61545238D01*
X72945239Y-61646031D01*
X73046032Y-61545238D01*
X73650794Y-61545238D01*
X73751588Y-61646031D01*
X73852381Y-61545238D01*
X73751588Y-61444444D01*
X73650794Y-61545238D01*
X73046032Y-61545238D01*
X72945239Y-61444444D01*
X72844445Y-61545238D01*
X71704243Y-61545238D01*
X71835057Y-60944292D01*
X71924139Y-60435180D01*
X71714716Y-59932539D01*
X85342858Y-59932539D01*
X85443651Y-60033333D01*
X85544445Y-59932539D01*
X85443651Y-59831746D01*
X85342858Y-59932539D01*
X71714716Y-59932539D01*
X71710418Y-59922223D01*
X71620204Y-59730952D01*
X72038096Y-59730952D01*
X72138889Y-59831746D01*
X72239683Y-59730952D01*
X72844445Y-59730952D01*
X72945239Y-59831746D01*
X73046032Y-59730952D01*
X72945239Y-59630158D01*
X72844445Y-59730952D01*
X72239683Y-59730952D01*
X72138889Y-59630158D01*
X72038096Y-59730952D01*
X71620204Y-59730952D01*
X71515486Y-59508929D01*
X71594407Y-59175006D01*
X71689388Y-58944882D01*
X71520875Y-58537396D01*
X71410742Y-58319841D01*
X72038096Y-58319841D01*
X72138889Y-58420635D01*
X72239683Y-58319841D01*
X72844445Y-58319841D01*
X72945239Y-58420635D01*
X73046032Y-58319841D01*
X73650794Y-58319841D01*
X73751588Y-58420635D01*
X73852381Y-58319841D01*
X74658731Y-58319841D01*
X74759524Y-58420635D01*
X74860318Y-58319841D01*
X74759524Y-58219047D01*
X74658731Y-58319841D01*
X73852381Y-58319841D01*
X73751588Y-58219047D01*
X73650794Y-58319841D01*
X73046032Y-58319841D01*
X72945239Y-58219047D01*
X72844445Y-58319841D01*
X72239683Y-58319841D01*
X72138889Y-58219047D01*
X72038096Y-58319841D01*
X71410742Y-58319841D01*
X71380449Y-58260000D01*
X71412078Y-57933205D01*
X71531459Y-57738324D01*
X71623959Y-57513492D01*
X72038096Y-57513492D01*
X72138889Y-57614285D01*
X72239683Y-57513492D01*
X72844445Y-57513492D01*
X72945239Y-57614285D01*
X73046032Y-57513492D01*
X73650794Y-57513492D01*
X73751588Y-57614285D01*
X73852381Y-57513492D01*
X73751588Y-57412698D01*
X73650794Y-57513492D01*
X73046032Y-57513492D01*
X72945239Y-57412698D01*
X72844445Y-57513492D01*
X72239683Y-57513492D01*
X72138889Y-57412698D01*
X72038096Y-57513492D01*
X71623959Y-57513492D01*
X71714492Y-57293441D01*
X71738898Y-57014379D01*
X71541225Y-56789662D01*
X71500621Y-56770788D01*
X75092801Y-56770788D01*
X75123400Y-57233413D01*
X75251324Y-57412698D01*
X75378465Y-57330177D01*
X75465080Y-56994742D01*
X75529275Y-56717525D01*
X75817858Y-56643923D01*
X75841083Y-56648938D01*
X76047107Y-56795019D01*
X76166855Y-57166349D01*
X76199149Y-57513492D01*
X76230592Y-57851479D01*
X76237826Y-57965543D01*
X76287237Y-58319841D01*
X76325104Y-58591368D01*
X76462074Y-59053173D01*
X76614992Y-59293450D01*
X76750118Y-59254691D01*
X76833707Y-58879387D01*
X76899383Y-58433785D01*
X77057521Y-58232325D01*
X77371465Y-58288610D01*
X77583392Y-58514320D01*
X77682540Y-59019070D01*
X77682540Y-59630158D01*
X80488275Y-59630158D01*
X80788786Y-59630852D01*
X81806561Y-59643783D01*
X82672307Y-59670557D01*
X83302316Y-59707895D01*
X83462778Y-59730952D01*
X83612878Y-59752520D01*
X83783220Y-59776661D01*
X83901012Y-59592045D01*
X83929377Y-59126190D01*
X85342858Y-59126190D01*
X85443651Y-59226984D01*
X85544445Y-59126190D01*
X86350794Y-59126190D01*
X86451588Y-59226984D01*
X86552381Y-59126190D01*
X86451588Y-59025396D01*
X86350794Y-59126190D01*
X85544445Y-59126190D01*
X85443651Y-59025396D01*
X85342858Y-59126190D01*
X83929377Y-59126190D01*
X83931746Y-59087281D01*
X83985182Y-58486147D01*
X84212927Y-58074029D01*
X84688262Y-57870476D01*
X85483969Y-57815873D01*
X86552381Y-57815873D01*
X86552381Y-56807936D01*
X86548604Y-56707142D01*
X87963492Y-56707142D01*
X88064286Y-56807936D01*
X88165080Y-56707142D01*
X88064286Y-56606349D01*
X87963492Y-56707142D01*
X86548604Y-56707142D01*
X86538777Y-56444862D01*
X86465788Y-55981302D01*
X86414724Y-55900793D01*
X87963492Y-55900793D01*
X88064286Y-56001587D01*
X88165080Y-55900793D01*
X88064286Y-55800000D01*
X87963492Y-55900793D01*
X86414724Y-55900793D01*
X86350794Y-55800000D01*
X86305606Y-55820561D01*
X86193916Y-56101411D01*
X86149207Y-56606349D01*
X86145108Y-56786803D01*
X86088948Y-57233767D01*
X85987937Y-57412698D01*
X85843829Y-57389081D01*
X85560245Y-57103656D01*
X85395888Y-56475839D01*
X85342858Y-55481984D01*
X85316438Y-54662703D01*
X85253520Y-54288095D01*
X86350794Y-54288095D01*
X86451588Y-54388888D01*
X86552381Y-54288095D01*
X88769842Y-54288095D01*
X88870635Y-54388888D01*
X88971429Y-54288095D01*
X88870635Y-54187301D01*
X88769842Y-54288095D01*
X86552381Y-54288095D01*
X86451588Y-54187301D01*
X86350794Y-54288095D01*
X85253520Y-54288095D01*
X85219568Y-54085950D01*
X85040477Y-53784127D01*
X84803052Y-53528243D01*
X84800631Y-53481746D01*
X86350794Y-53481746D01*
X86451588Y-53582539D01*
X86552381Y-53481746D01*
X88769842Y-53481746D01*
X88870635Y-53582539D01*
X88971429Y-53481746D01*
X88870635Y-53380952D01*
X88769842Y-53481746D01*
X86552381Y-53481746D01*
X86451588Y-53380952D01*
X86350794Y-53481746D01*
X84800631Y-53481746D01*
X84789867Y-53275030D01*
X85129373Y-53179365D01*
X85360906Y-53147124D01*
X85645239Y-52977777D01*
X85804178Y-52855044D01*
X86211501Y-52756096D01*
X86490743Y-52730777D01*
X86567187Y-52676247D01*
X86564534Y-52675396D01*
X87963492Y-52675396D01*
X87964343Y-52676247D01*
X88064286Y-52776190D01*
X88165080Y-52675396D01*
X88769842Y-52675396D01*
X88870635Y-52776190D01*
X88971429Y-52675396D01*
X88870635Y-52574603D01*
X88769842Y-52675396D01*
X88165080Y-52675396D01*
X88064286Y-52574603D01*
X87963492Y-52675396D01*
X86564534Y-52675396D01*
X86353342Y-52607659D01*
X85913521Y-52535033D01*
X85312039Y-52468387D01*
X84613211Y-52417739D01*
X83881350Y-52393110D01*
X83587523Y-52387578D01*
X82728599Y-52333301D01*
X82230151Y-52229139D01*
X82105870Y-52079652D01*
X82369445Y-51889401D01*
X82392175Y-51869047D01*
X83125397Y-51869047D01*
X83226191Y-51969841D01*
X83326985Y-51869047D01*
X83931746Y-51869047D01*
X84032540Y-51969841D01*
X84133334Y-51869047D01*
X84738096Y-51869047D01*
X84838889Y-51969841D01*
X84939683Y-51869047D01*
X85544445Y-51869047D01*
X85645239Y-51969841D01*
X85746032Y-51869047D01*
X87157143Y-51869047D01*
X87257937Y-51969841D01*
X87358731Y-51869047D01*
X87257937Y-51768254D01*
X87157143Y-51869047D01*
X85746032Y-51869047D01*
X85645239Y-51768254D01*
X85544445Y-51869047D01*
X84939683Y-51869047D01*
X84838889Y-51768254D01*
X84738096Y-51869047D01*
X84133334Y-51869047D01*
X84032540Y-51768254D01*
X83931746Y-51869047D01*
X83326985Y-51869047D01*
X83226191Y-51768254D01*
X83125397Y-51869047D01*
X82392175Y-51869047D01*
X82437517Y-51828445D01*
X82218254Y-51823856D01*
X82192679Y-51827394D01*
X81886451Y-52016821D01*
X81753070Y-52510314D01*
X81738169Y-52787204D01*
X81833544Y-53103157D01*
X82156244Y-53237163D01*
X82331709Y-53276829D01*
X82341884Y-53324068D01*
X81966270Y-53353499D01*
X81699598Y-53354534D01*
X81390057Y-53258265D01*
X81311112Y-52977777D01*
X81277590Y-52773052D01*
X81109730Y-52644287D01*
X80717911Y-52587395D01*
X80012691Y-52574603D01*
X79376074Y-52549862D01*
X78841548Y-52477059D01*
X78589683Y-52373015D01*
X78619920Y-52240950D01*
X78930564Y-52168341D01*
X79253767Y-52132337D01*
X79687899Y-51980605D01*
X79763036Y-51918621D01*
X79729196Y-51762670D01*
X79388486Y-51647230D01*
X78811677Y-51588781D01*
X78069545Y-51603800D01*
X77713771Y-51633265D01*
X77337044Y-51725735D01*
X77177082Y-51958253D01*
X77115380Y-52433916D01*
X77082438Y-52675396D01*
X77053521Y-52887366D01*
X76908545Y-53120519D01*
X76616381Y-53139472D01*
X76331605Y-53157246D01*
X76110427Y-53431349D01*
X76104279Y-53466527D01*
X76181925Y-53714209D01*
X76570074Y-53784127D01*
X76787294Y-53791795D01*
X76993824Y-53883203D01*
X77060289Y-54164567D01*
X77055609Y-54288095D01*
X77038427Y-54741666D01*
X76976985Y-55699206D01*
X76069842Y-55800000D01*
X75707803Y-55844673D01*
X75510805Y-55900793D01*
X75326350Y-55953340D01*
X75162744Y-56189619D01*
X75100133Y-56656746D01*
X75092801Y-56770788D01*
X71500621Y-56770788D01*
X71033608Y-56553706D01*
X71022092Y-56549163D01*
X70424241Y-56219675D01*
X70244583Y-55900793D01*
X72038096Y-55900793D01*
X72138889Y-56001587D01*
X72239683Y-55900793D01*
X73650794Y-55900793D01*
X73751588Y-56001587D01*
X73852381Y-55900793D01*
X73751588Y-55800000D01*
X73650794Y-55900793D01*
X72239683Y-55900793D01*
X72138889Y-55800000D01*
X72038096Y-55900793D01*
X70244583Y-55900793D01*
X70223810Y-55863922D01*
X70300568Y-55583334D01*
X70547881Y-55082731D01*
X70897086Y-54502596D01*
X71045142Y-54288095D01*
X73449207Y-54288095D01*
X73550000Y-54388888D01*
X73650794Y-54288095D01*
X73550000Y-54187301D01*
X73449207Y-54288095D01*
X71045142Y-54288095D01*
X71276764Y-53952524D01*
X71615497Y-53542111D01*
X71841864Y-53380952D01*
X71921589Y-53357427D01*
X72038096Y-53109815D01*
X72144298Y-52832969D01*
X72275814Y-52675396D01*
X72844445Y-52675396D01*
X72945239Y-52776190D01*
X73046032Y-52675396D01*
X72945239Y-52574603D01*
X72844445Y-52675396D01*
X72275814Y-52675396D01*
X72452689Y-52463476D01*
X72705084Y-52145060D01*
X72751229Y-51625883D01*
X72721725Y-51322382D01*
X72891001Y-51160405D01*
X73028323Y-51127772D01*
X72957519Y-51062698D01*
X74457143Y-51062698D01*
X74557937Y-51163492D01*
X74658731Y-51062698D01*
X75868254Y-51062698D01*
X75969048Y-51163492D01*
X76069842Y-51062698D01*
X76674604Y-51062698D01*
X76775397Y-51163492D01*
X76876191Y-51062698D01*
X77480953Y-51062698D01*
X77581746Y-51163492D01*
X77682540Y-51062698D01*
X78287302Y-51062698D01*
X78388096Y-51163492D01*
X78488889Y-51062698D01*
X87963492Y-51062698D01*
X88064286Y-51163492D01*
X88165080Y-51062698D01*
X88769842Y-51062698D01*
X88870635Y-51163492D01*
X88971429Y-51062698D01*
X88870635Y-50961904D01*
X88769842Y-51062698D01*
X88165080Y-51062698D01*
X88064286Y-50961904D01*
X87963492Y-51062698D01*
X78488889Y-51062698D01*
X78388096Y-50961904D01*
X78287302Y-51062698D01*
X77682540Y-51062698D01*
X77581746Y-50961904D01*
X77480953Y-51062698D01*
X76876191Y-51062698D01*
X76775397Y-50961904D01*
X76674604Y-51062698D01*
X76069842Y-51062698D01*
X75969048Y-50961904D01*
X75868254Y-51062698D01*
X74658731Y-51062698D01*
X74557937Y-50961904D01*
X74457143Y-51062698D01*
X72957519Y-51062698D01*
X72869015Y-50981356D01*
X72741852Y-50857378D01*
X72762390Y-50530871D01*
X72832524Y-50399337D01*
X72878882Y-50256349D01*
X73650794Y-50256349D01*
X73751588Y-50357142D01*
X73852381Y-50256349D01*
X74457143Y-50256349D01*
X74557937Y-50357142D01*
X74658731Y-50256349D01*
X76069842Y-50256349D01*
X76170635Y-50357142D01*
X76271429Y-50256349D01*
X76876191Y-50256349D01*
X76976985Y-50357142D01*
X77077778Y-50256349D01*
X77073726Y-50252297D01*
X78733546Y-50252297D01*
X78733955Y-50256349D01*
X78757672Y-50491534D01*
X78818306Y-50523072D01*
X78892064Y-50357142D01*
X78878324Y-50256349D01*
X79900000Y-50256349D01*
X80000794Y-50357142D01*
X80101588Y-50256349D01*
X80706350Y-50256349D01*
X80807143Y-50357142D01*
X80907937Y-50256349D01*
X81512699Y-50256349D01*
X81613492Y-50357142D01*
X81714286Y-50256349D01*
X82319048Y-50256349D01*
X82419842Y-50357142D01*
X82520635Y-50256349D01*
X83125397Y-50256349D01*
X83226191Y-50357142D01*
X83326985Y-50256349D01*
X83931746Y-50256349D01*
X84032540Y-50357142D01*
X84133334Y-50256349D01*
X84738096Y-50256349D01*
X84838889Y-50357142D01*
X84939683Y-50256349D01*
X84838889Y-50155555D01*
X84738096Y-50256349D01*
X84133334Y-50256349D01*
X84032540Y-50155555D01*
X83931746Y-50256349D01*
X83326985Y-50256349D01*
X83226191Y-50155555D01*
X83125397Y-50256349D01*
X82520635Y-50256349D01*
X82419842Y-50155555D01*
X82319048Y-50256349D01*
X81714286Y-50256349D01*
X81613492Y-50155555D01*
X81512699Y-50256349D01*
X80907937Y-50256349D01*
X80807143Y-50155555D01*
X80706350Y-50256349D01*
X80101588Y-50256349D01*
X80000794Y-50155555D01*
X79900000Y-50256349D01*
X78878324Y-50256349D01*
X78877516Y-50250423D01*
X78757672Y-50222751D01*
X78733546Y-50252297D01*
X77073726Y-50252297D01*
X76976985Y-50155555D01*
X76876191Y-50256349D01*
X76271429Y-50256349D01*
X76170635Y-50155555D01*
X76069842Y-50256349D01*
X74658731Y-50256349D01*
X74557937Y-50155555D01*
X74457143Y-50256349D01*
X73852381Y-50256349D01*
X73751588Y-50155555D01*
X73650794Y-50256349D01*
X72878882Y-50256349D01*
X72932150Y-50092046D01*
X87677313Y-50092046D01*
X87963492Y-50123726D01*
X88240801Y-50095626D01*
X88215477Y-50022048D01*
X88124227Y-49995423D01*
X87711508Y-50022048D01*
X87677313Y-50092046D01*
X72932150Y-50092046D01*
X72984345Y-49931052D01*
X73051145Y-49611549D01*
X73107803Y-49450000D01*
X76069842Y-49450000D01*
X76170635Y-49550793D01*
X76271429Y-49450000D01*
X76876191Y-49450000D01*
X76976985Y-49550793D01*
X77077778Y-49450000D01*
X79900000Y-49450000D01*
X80000794Y-49550793D01*
X80101588Y-49450000D01*
X80706350Y-49450000D01*
X80807143Y-49550793D01*
X80907937Y-49450000D01*
X81512699Y-49450000D01*
X81613492Y-49550793D01*
X81714286Y-49450000D01*
X82319048Y-49450000D01*
X82419842Y-49550793D01*
X82520635Y-49450000D01*
X83931746Y-49450000D01*
X84032540Y-49550793D01*
X84133334Y-49450000D01*
X85544445Y-49450000D01*
X85645239Y-49550793D01*
X85746032Y-49450000D01*
X86350794Y-49450000D01*
X86451588Y-49550793D01*
X86552381Y-49450000D01*
X87157143Y-49450000D01*
X87257937Y-49550793D01*
X87358731Y-49450000D01*
X87963492Y-49450000D01*
X88064286Y-49550793D01*
X88165080Y-49450000D01*
X88064286Y-49349206D01*
X87963492Y-49450000D01*
X87358731Y-49450000D01*
X87257937Y-49349206D01*
X87157143Y-49450000D01*
X86552381Y-49450000D01*
X86451588Y-49349206D01*
X86350794Y-49450000D01*
X85746032Y-49450000D01*
X85645239Y-49349206D01*
X85544445Y-49450000D01*
X84133334Y-49450000D01*
X84032540Y-49349206D01*
X83931746Y-49450000D01*
X82520635Y-49450000D01*
X82419842Y-49349206D01*
X82319048Y-49450000D01*
X81714286Y-49450000D01*
X81613492Y-49349206D01*
X81512699Y-49450000D01*
X80907937Y-49450000D01*
X80807143Y-49349206D01*
X80706350Y-49450000D01*
X80101588Y-49450000D01*
X80000794Y-49349206D01*
X79900000Y-49450000D01*
X77077778Y-49450000D01*
X76976985Y-49349206D01*
X76876191Y-49450000D01*
X76271429Y-49450000D01*
X76170635Y-49349206D01*
X76069842Y-49450000D01*
X73107803Y-49450000D01*
X73236926Y-49081829D01*
X73455263Y-48721065D01*
X73648108Y-48641990D01*
X73735633Y-48665041D01*
X73736080Y-48643650D01*
X81512699Y-48643650D01*
X81613492Y-48744444D01*
X81714286Y-48643650D01*
X86350794Y-48643650D01*
X86451588Y-48744444D01*
X86552381Y-48643650D01*
X87157143Y-48643650D01*
X87257937Y-48744444D01*
X87358731Y-48643650D01*
X87257937Y-48542857D01*
X87157143Y-48643650D01*
X86552381Y-48643650D01*
X86451588Y-48542857D01*
X86350794Y-48643650D01*
X81714286Y-48643650D01*
X81613492Y-48542857D01*
X81512699Y-48643650D01*
X73736080Y-48643650D01*
X73739434Y-48483083D01*
X73780497Y-48198873D01*
X74005806Y-47837301D01*
X87157143Y-47837301D01*
X87257937Y-47938095D01*
X87358731Y-47837301D01*
X87257937Y-47736508D01*
X87157143Y-47837301D01*
X74005806Y-47837301D01*
X74072584Y-47730137D01*
X74553927Y-47186200D01*
X74726537Y-47030952D01*
X82319048Y-47030952D01*
X82419842Y-47131746D01*
X82520635Y-47030952D01*
X82419842Y-46930158D01*
X82319048Y-47030952D01*
X74726537Y-47030952D01*
X75149724Y-46650330D01*
X75785172Y-46205796D01*
X75940874Y-46115907D01*
X76225340Y-45973858D01*
X76536815Y-45870664D01*
X76937991Y-45800128D01*
X77491564Y-45756055D01*
X78260226Y-45732246D01*
X79306672Y-45722504D01*
X80693595Y-45720635D01*
X81115496Y-45720809D01*
X82558262Y-45729607D01*
X83680366Y-45764731D01*
X84547701Y-45844008D01*
X85226157Y-45985265D01*
X85781626Y-46206328D01*
X86280000Y-46525023D01*
X86787169Y-46959177D01*
X86860768Y-47030952D01*
X87369026Y-47526616D01*
G37*
D15*
%TO.C,U1*%
X59750000Y-43862500D02*
X59750000Y-40962500D01*
X59750000Y-43862500D02*
X58850000Y-43862500D01*
X59750000Y-40962500D02*
X58850000Y-40962500D01*
X58850000Y-43862500D02*
X58850000Y-40962500D01*
D16*
X61525000Y-41462500D02*
G75*
G02*
X61275000Y-41462500I-125000J0D01*
G01*
X61275000Y-41462500D02*
G75*
G02*
X61525000Y-41462500I125000J0D01*
G01*
D17*
%TO.C,R1*%
X63777500Y-45124758D02*
X63777500Y-44650242D01*
X64822500Y-45124758D02*
X64822500Y-44650242D01*
D15*
%TO.C,U2*%
X72450000Y-44812500D02*
X72450000Y-41912500D01*
X72450000Y-44812500D02*
X71550000Y-44812500D01*
X72450000Y-41912500D02*
X71550000Y-41912500D01*
X71550000Y-44812500D02*
X71550000Y-41912500D01*
D16*
X74225000Y-42412500D02*
G75*
G02*
X73975000Y-42412500I-125000J0D01*
G01*
X73975000Y-42412500D02*
G75*
G02*
X74225000Y-42412500I125000J0D01*
G01*
%TD*%
M02*
