%TF.GenerationSoftware,KiCad,Pcbnew,9.0.0*%
%TF.CreationDate,2026-03-11T16:02:10-04:00*%
%TF.ProjectId,SSA_LED_Board_1,5353415f-4c45-4445-9f42-6f6172645f31,rev?*%
%TF.SameCoordinates,Original*%
%TF.FileFunction,Copper,L1,Top*%
%TF.FilePolarity,Positive*%
%FSLAX46Y46*%
G04 Gerber Fmt 4.6, Leading zero omitted, Abs format (unit mm)*
G04 Created by KiCad (PCBNEW 9.0.0) date 2026-03-11 16:02:10*
%MOMM*%
%LPD*%
G01*
G04 APERTURE LIST*
G04 Aperture macros list*
%AMRoundRect*
0 Rectangle with rounded corners*
0 $1 Rounding radius*
0 $2 $3 $4 $5 $6 $7 $8 $9 X,Y pos of 4 corners*
0 Add a 4 corners polygon primitive as box body*
4,1,4,$2,$3,$4,$5,$6,$7,$8,$9,$2,$3,0*
0 Add four circle primitives for the rounded corners*
1,1,$1+$1,$2,$3*
1,1,$1+$1,$4,$5*
1,1,$1+$1,$6,$7*
1,1,$1+$1,$8,$9*
0 Add four rect primitives between the rounded corners*
20,1,$1+$1,$2,$3,$4,$5,0*
20,1,$1+$1,$4,$5,$6,$7,0*
20,1,$1+$1,$6,$7,$8,$9,0*
20,1,$1+$1,$8,$9,$2,$3,0*%
G04 Aperture macros list end*
%TA.AperFunction,SMDPad,CuDef*%
%ADD10RoundRect,0.218750X-0.218750X-0.256250X0.218750X-0.256250X0.218750X0.256250X-0.218750X0.256250X0*%
%TD*%
%TA.AperFunction,SMDPad,CuDef*%
%ADD11RoundRect,0.218750X0.256250X-0.218750X0.256250X0.218750X-0.256250X0.218750X-0.256250X-0.218750X0*%
%TD*%
%TA.AperFunction,SMDPad,CuDef*%
%ADD12RoundRect,0.218750X0.218750X0.256250X-0.218750X0.256250X-0.218750X-0.256250X0.218750X-0.256250X0*%
%TD*%
%TA.AperFunction,ComponentPad*%
%ADD13O,3.800000X1.900000*%
%TD*%
%TA.AperFunction,ComponentPad*%
%ADD14O,1.900000X3.800000*%
%TD*%
%TA.AperFunction,ComponentPad*%
%ADD15O,2.200000X4.400000*%
%TD*%
%TA.AperFunction,SMDPad,CuDef*%
%ADD16RoundRect,0.218750X-0.256250X0.218750X-0.256250X-0.218750X0.256250X-0.218750X0.256250X0.218750X0*%
%TD*%
%TA.AperFunction,ViaPad*%
%ADD17C,0.600000*%
%TD*%
%TA.AperFunction,Conductor*%
%ADD18C,0.400000*%
%TD*%
G04 APERTURE END LIST*
D10*
%TO.P,D1,1,K*%
%TO.N,Net-(D1-K)*%
X44825000Y-31325000D03*
%TO.P,D1,2,A*%
%TO.N,/D_string_1*%
X46400000Y-31325000D03*
%TD*%
%TO.P,D2,1,K*%
%TO.N,Net-(D2-K)*%
X39725000Y-31325000D03*
%TO.P,D2,2,A*%
%TO.N,Net-(D1-K)*%
X41300000Y-31325000D03*
%TD*%
D11*
%TO.P,D3,1,K*%
%TO.N,Net-(D3-K)*%
X36500000Y-36275000D03*
%TO.P,D3,2,A*%
%TO.N,Net-(D2-K)*%
X36500000Y-34700000D03*
%TD*%
%TO.P,D4,1,K*%
%TO.N,GND*%
X36500000Y-40875000D03*
%TO.P,D4,2,A*%
%TO.N,Net-(D3-K)*%
X36500000Y-39300000D03*
%TD*%
D12*
%TO.P,D5,1,K*%
%TO.N,Net-(D5-K)*%
X40800000Y-44600000D03*
%TO.P,D5,2,A*%
%TO.N,/D_string_1*%
X39225000Y-44600000D03*
%TD*%
%TO.P,D6,1,K*%
%TO.N,Net-(D6-K)*%
X46100000Y-44600000D03*
%TO.P,D6,2,A*%
%TO.N,Net-(D5-K)*%
X44525000Y-44600000D03*
%TD*%
D11*
%TO.P,D7,1,K*%
%TO.N,Net-(D7-K)*%
X48800000Y-48675000D03*
%TO.P,D7,2,A*%
%TO.N,Net-(D6-K)*%
X48800000Y-47100000D03*
%TD*%
%TO.P,D8,1,K*%
%TO.N,GND*%
X48800000Y-53675000D03*
%TO.P,D8,2,A*%
%TO.N,Net-(D7-K)*%
X48800000Y-52100000D03*
%TD*%
D13*
%TO.P,J1,3*%
%TO.N,GND*%
X25950000Y-36490000D03*
D14*
%TO.P,J1,2*%
X22700000Y-31800000D03*
D15*
%TO.P,J1,1*%
%TO.N,/Power_in*%
X28655000Y-31800000D03*
%TD*%
D11*
%TO.P,D24,2,A*%
%TO.N,Net-(D23-K)*%
X89000000Y-41725000D03*
%TO.P,D24,1,K*%
%TO.N,GND*%
X89000000Y-43300000D03*
%TD*%
%TO.P,D27,1,K*%
%TO.N,Net-(D27-K)*%
X75800000Y-36550000D03*
%TO.P,D27,2,A*%
%TO.N,Net-(D26-K)*%
X75800000Y-34975000D03*
%TD*%
%TO.P,D23,1,K*%
%TO.N,Net-(D23-K)*%
X89000000Y-36550000D03*
%TO.P,D23,2,A*%
%TO.N,Net-(D22-K)*%
X89000000Y-34975000D03*
%TD*%
D16*
%TO.P,D17,1,K*%
%TO.N,Net-(D17-K)*%
X55500000Y-38700000D03*
%TO.P,D17,2,A*%
%TO.N,/D_string_5*%
X55500000Y-40275000D03*
%TD*%
D10*
%TO.P,D16,1,K*%
%TO.N,GND*%
X57425000Y-44687500D03*
%TO.P,D16,2,A*%
%TO.N,Net-(D15-K)*%
X59000000Y-44687500D03*
%TD*%
%TO.P,D10,2,A*%
%TO.N,Net-(D10-A)*%
X39200000Y-58800000D03*
%TO.P,D10,1,K*%
%TO.N,Net-(D10-K)*%
X37625000Y-58800000D03*
%TD*%
D16*
%TO.P,D13,2,A*%
%TO.N,/D_string_1*%
X66800000Y-54100000D03*
%TO.P,D13,1,K*%
%TO.N,Net-(D13-K)*%
X66800000Y-52525000D03*
%TD*%
D10*
%TO.P,D15,2,A*%
%TO.N,Net-(D14-K)*%
X63600000Y-44787500D03*
%TO.P,D15,1,K*%
%TO.N,Net-(D15-K)*%
X62025000Y-44787500D03*
%TD*%
%TO.P,D12,2,A*%
%TO.N,Net-(D11-K)*%
X58500000Y-58487500D03*
%TO.P,D12,1,K*%
%TO.N,GND*%
X56925000Y-58487500D03*
%TD*%
%TO.P,D9,2,A*%
%TO.N,/D_string_1*%
X45000000Y-58700000D03*
%TO.P,D9,1,K*%
%TO.N,Net-(D10-A)*%
X43425000Y-58700000D03*
%TD*%
%TO.P,D11,2,A*%
%TO.N,Net-(D10-K)*%
X64387500Y-58387500D03*
%TO.P,D11,1,K*%
%TO.N,Net-(D11-K)*%
X62812500Y-58387500D03*
%TD*%
D16*
%TO.P,D14,2,A*%
%TO.N,Net-(D13-K)*%
X66700000Y-48787500D03*
%TO.P,D14,1,K*%
%TO.N,Net-(D14-K)*%
X66700000Y-47212500D03*
%TD*%
D12*
%TO.P,D20,2,A*%
%TO.N,Net-(D19-K)*%
X64600000Y-30887500D03*
%TO.P,D20,1,K*%
%TO.N,GND*%
X66175000Y-30887500D03*
%TD*%
D10*
%TO.P,D26,2,A*%
%TO.N,Net-(D25-K)*%
X80287500Y-46762500D03*
%TO.P,D26,1,K*%
%TO.N,Net-(D26-K)*%
X78712500Y-46762500D03*
%TD*%
D12*
%TO.P,D21,2,A*%
%TO.N,/D_string_5*%
X78712500Y-31012500D03*
%TO.P,D21,1,K*%
%TO.N,Net-(D21-K)*%
X80287500Y-31012500D03*
%TD*%
%TO.P,D19,2,A*%
%TO.N,Net-(D18-K)*%
X59700000Y-30987500D03*
%TO.P,D19,1,K*%
%TO.N,Net-(D19-K)*%
X61275000Y-30987500D03*
%TD*%
D16*
%TO.P,D18,2,A*%
%TO.N,Net-(D17-K)*%
X55500000Y-35287500D03*
%TO.P,D18,1,K*%
%TO.N,Net-(D18-K)*%
X55500000Y-33712500D03*
%TD*%
D12*
%TO.P,D22,2,A*%
%TO.N,Net-(D21-K)*%
X84712500Y-31012500D03*
%TO.P,D22,1,K*%
%TO.N,Net-(D22-K)*%
X86287500Y-31012500D03*
%TD*%
D10*
%TO.P,D25,2,A*%
%TO.N,/D_string_5*%
X86287500Y-46762500D03*
%TO.P,D25,1,K*%
%TO.N,Net-(D25-K)*%
X84712500Y-46762500D03*
%TD*%
D16*
%TO.P,D31,2,A*%
%TO.N,Net-(D30-K)*%
X89000000Y-58300000D03*
%TO.P,D31,1,K*%
%TO.N,Net-(D31-K)*%
X89000000Y-56725000D03*
%TD*%
D11*
%TO.P,D29,2,A*%
%TO.N,/D_string_5*%
X75800000Y-50225000D03*
%TO.P,D29,1,K*%
%TO.N,Net-(D29-K)*%
X75800000Y-51800000D03*
%TD*%
%TO.P,D30,1,K*%
%TO.N,Net-(D30-K)*%
X75800000Y-58300000D03*
%TO.P,D30,2,A*%
%TO.N,Net-(D29-K)*%
X75800000Y-56725000D03*
%TD*%
%TO.P,D28,2,A*%
%TO.N,Net-(D27-K)*%
X75800000Y-41725000D03*
%TO.P,D28,1,K*%
%TO.N,GND*%
X75800000Y-43300000D03*
%TD*%
D16*
%TO.P,D32,2,A*%
%TO.N,Net-(D31-K)*%
X89000000Y-51800000D03*
%TO.P,D32,1,K*%
%TO.N,GND*%
X89000000Y-50225000D03*
%TD*%
D17*
%TO.N,GND*%
X75800000Y-45112500D03*
X36500000Y-42712500D03*
X46900000Y-53712500D03*
X55500000Y-58512500D03*
X89000000Y-48612500D03*
X89000000Y-44712500D03*
X66200000Y-32312500D03*
%TO.N,/D_string_5*%
X73200000Y-46012500D03*
X69300000Y-43312500D03*
%TO.N,GND*%
X57400000Y-50112500D03*
%TO.N,/D_string_1*%
X46500000Y-38512500D03*
X46500000Y-32712500D03*
X60500000Y-45212500D03*
%TD*%
D18*
%TO.N,GND*%
X57425000Y-48787500D02*
X57425000Y-44687500D01*
X57400000Y-50112500D02*
X57400000Y-48812500D01*
X57400000Y-48812500D02*
X57425000Y-48787500D01*
%TO.N,/D_string_5*%
X78712500Y-33925000D02*
X78712500Y-31012500D01*
X86287500Y-41500000D02*
X78712500Y-33925000D01*
%TO.N,GND*%
X75800000Y-43300000D02*
X75800000Y-45112500D01*
X36500000Y-40875000D02*
X36500000Y-42712500D01*
X46937500Y-53675000D02*
X46900000Y-53712500D01*
X48800000Y-53675000D02*
X46937500Y-53675000D01*
X55525000Y-58487500D02*
X55500000Y-58512500D01*
X56925000Y-58487500D02*
X55525000Y-58487500D01*
X89000000Y-50225000D02*
X89000000Y-48612500D01*
X89000000Y-43300000D02*
X89000000Y-44712500D01*
X66175000Y-32287500D02*
X66200000Y-32312500D01*
X66175000Y-30887500D02*
X66175000Y-32287500D01*
%TO.N,/D_string_5*%
X84487500Y-48562500D02*
X86287500Y-46762500D01*
X74050000Y-48562500D02*
X75712500Y-50225000D01*
X74050000Y-48562500D02*
X84487500Y-48562500D01*
X73200000Y-47712500D02*
X74050000Y-48562500D01*
X75712500Y-50225000D02*
X75800000Y-50225000D01*
X73200000Y-46012500D02*
X73200000Y-47712500D01*
%TO.N,Net-(D31-K)*%
X89000000Y-56725000D02*
X89000000Y-51800000D01*
%TO.N,Net-(D30-K)*%
X75800000Y-58300000D02*
X89000000Y-58300000D01*
%TO.N,Net-(D29-K)*%
X75800000Y-51800000D02*
X75800000Y-56725000D01*
%TO.N,Net-(D27-K)*%
X75800000Y-36550000D02*
X75800000Y-41725000D01*
%TO.N,Net-(D26-K)*%
X78712500Y-37225000D02*
X76462500Y-34975000D01*
X76462500Y-34975000D02*
X75800000Y-34975000D01*
X78712500Y-46762500D02*
X78712500Y-37225000D01*
%TO.N,Net-(D25-K)*%
X84712500Y-46762500D02*
X80287500Y-46762500D01*
%TO.N,Net-(D23-K)*%
X89000000Y-36550000D02*
X89000000Y-41725000D01*
%TO.N,Net-(D22-K)*%
X89000000Y-32512500D02*
X89000000Y-34975000D01*
X86287500Y-31012500D02*
X87500000Y-31012500D01*
X87500000Y-31012500D02*
X89000000Y-32512500D01*
%TO.N,Net-(D21-K)*%
X80287500Y-31012500D02*
X84712500Y-31012500D01*
%TO.N,Net-(D19-K)*%
X64500000Y-30987500D02*
X64600000Y-30887500D01*
X61275000Y-30987500D02*
X64500000Y-30987500D01*
%TO.N,Net-(D18-K)*%
X57125000Y-30987500D02*
X59700000Y-30987500D01*
X55500000Y-33712500D02*
X55500000Y-32612500D01*
X55500000Y-32612500D02*
X57125000Y-30987500D01*
%TO.N,Net-(D17-K)*%
X55500000Y-38700000D02*
X55500000Y-35287500D01*
%TO.N,/D_string_5*%
X69300000Y-43312500D02*
X66262500Y-40275000D01*
X66262500Y-40275000D02*
X55500000Y-40275000D01*
%TO.N,Net-(D15-K)*%
X59176000Y-44511500D02*
X59000000Y-44687500D01*
X61749000Y-44511500D02*
X59176000Y-44511500D01*
X62025000Y-44787500D02*
X61749000Y-44511500D01*
%TO.N,Net-(D14-K)*%
X66700000Y-46012500D02*
X65475000Y-44787500D01*
X65475000Y-44787500D02*
X63600000Y-44787500D01*
X66700000Y-47212500D02*
X66700000Y-46012500D01*
%TO.N,Net-(D13-K)*%
X66800000Y-48887500D02*
X66700000Y-48787500D01*
X66800000Y-52525000D02*
X66800000Y-48887500D01*
%TO.N,Net-(D11-K)*%
X58600000Y-58387500D02*
X58500000Y-58487500D01*
X62812500Y-58387500D02*
X58600000Y-58387500D01*
%TO.N,Net-(D10-K)*%
X37625000Y-60537500D02*
X39300000Y-62212500D01*
X39300000Y-62212500D02*
X61800000Y-62212500D01*
X61800000Y-62212500D02*
X64387500Y-59625000D01*
X64387500Y-59625000D02*
X64387500Y-58387500D01*
X37625000Y-58800000D02*
X37625000Y-60537500D01*
%TO.N,Net-(D10-A)*%
X39300000Y-58700000D02*
X39200000Y-58800000D01*
X43425000Y-58700000D02*
X39300000Y-58700000D01*
%TO.N,/D_string_1*%
X39225000Y-49537500D02*
X45000000Y-55312500D01*
X39225000Y-44600000D02*
X39225000Y-49537500D01*
X45000000Y-55312500D02*
X45000000Y-58700000D01*
%TO.N,Net-(D7-K)*%
X48800000Y-48675000D02*
X48800000Y-52100000D01*
%TO.N,Net-(D6-K)*%
X47587500Y-44600000D02*
X48800000Y-45812500D01*
X46100000Y-44600000D02*
X47587500Y-44600000D01*
X48800000Y-45812500D02*
X48800000Y-47100000D01*
%TO.N,Net-(D5-K)*%
X40800000Y-44600000D02*
X44525000Y-44600000D01*
%TO.N,/D_string_1*%
X43000000Y-38512500D02*
X39225000Y-42287500D01*
X46500000Y-38512500D02*
X43000000Y-38512500D01*
X39225000Y-42287500D02*
X39225000Y-44600000D01*
%TO.N,Net-(D3-K)*%
X36500000Y-36275000D02*
X36500000Y-39300000D01*
%TO.N,Net-(D2-K)*%
X36500000Y-32912500D02*
X36500000Y-34700000D01*
X38087500Y-31325000D02*
X36500000Y-32912500D01*
%TO.N,Net-(D1-K)*%
X44825000Y-31325000D02*
X41300000Y-31325000D01*
%TO.N,/D_string_1*%
X46500000Y-31425000D02*
X46400000Y-31325000D01*
X46500000Y-32712500D02*
X46500000Y-31425000D01*
X60400000Y-48812500D02*
X65687500Y-54100000D01*
X60500000Y-45212500D02*
X60400000Y-45312500D01*
X65687500Y-54100000D02*
X66800000Y-54100000D01*
X60400000Y-45312500D02*
X60400000Y-48812500D01*
%TO.N,Net-(D2-K)*%
X39725000Y-31325000D02*
X38087500Y-31325000D01*
%TO.N,/D_string_5*%
X86287500Y-46762500D02*
X86287500Y-41500000D01*
%TD*%
M02*
